<?xml version="1.0" encoding="UTF-8" standalone="no"?>
<!-- Created with Inkscape (http://www.inkscape.org/) -->

<svg
   xmlns:dc="http://purl.org/dc/elements/1.1/"
   xmlns:cc="http://creativecommons.org/ns#"
   xmlns:rdf="http://www.w3.org/1999/02/22-rdf-syntax-ns#"
   xmlns:svg="http://www.w3.org/2000/svg"
   xmlns="http://www.w3.org/2000/svg"
   xmlns:sodipodi="http://sodipodi.sourceforge.net/DTD/sodipodi-0.dtd"
   xmlns:inkscape="http://www.inkscape.org/namespaces/inkscape"
   width="128"
   height="128"
   id="svg2"
   version="1.1"
   inkscape:version="0.48.5 r10040"
   sodipodi:docname="flame-icon.svg">
  <defs
     id="defs4" />
  <sodipodi:namedview
     id="base"
     pagecolor="#ffffff"
     bordercolor="#666666"
     borderopacity="1.0"
     inkscape:pageopacity="0.0"
     inkscape:pageshadow="2"
     inkscape:zoom="3.959798"
     inkscape:cx="15.938902"
     inkscape:cy="77.374427"
     inkscape:document-units="px"
     inkscape:current-layer="layer1"
     showgrid="false"
     inkscape:window-width="1920"
     inkscape:window-height="1029"
     inkscape:window-x="0"
     inkscape:window-y="0"
     inkscape:window-maximized="1"
     fit-margin-top="0"
     fit-margin-left="0"
     fit-margin-right="0"
     fit-margin-bottom="0" />
  <metadata
     id="metadata7">
    <rdf:RDF>
      <cc:Work
         rdf:about="">
        <dc:format>image/svg+xml</dc:format>
        <dc:type
           rdf:resource="http://purl.org/dc/dcmitype/StillImage" />
        <dc:title />
      </cc:Work>
    </rdf:RDF>
  </metadata>
  <g
     inkscape:label="Layer 1"
     inkscape:groupmode="layer"
     id="layer1"
     transform="translate(-437.04286,-484.90918)">
    <rect
       style="fill:#ffffff;fill-opacity:1;fill-rule:nonzero;stroke:none"
       id="rect3004"
       width="165.66502"
       height="145.46196"
       x="-20.708128"
       y="-15.946736"
       transform="translate(437.04286,484.90918)" />
    <g
       id="g3042"
       transform="matrix(0.78294458,0,0,0.78294458,147.8742,194.55236)">
      <path
         style="fill:#e8e8f5"
         d="m 444.26027,533.72737 c -8.79367,-1.78075 -18.11067,-10.363 -21.0481,-19.38824 -1.26565,-3.88868 -1.60842,-15.75156 -0.50665,-17.53426 0.56346,-0.91171 3.69809,-14.76697 5.62748,-24.87385 0.56274,-2.94787 2.45373,-8.12287 4.2022,-11.5 l 3.17903,-6.14025 1.47555,-27.85714 c 14.75988,-92.33627 23.85389,-55.60043 34.2794,8.78571 -0.68393,12.52632 1.25873,19.36447 2.93876,27.57101 1.36702,6.6776 1.7472,11.2015 1.27979,15.22875 -0.54656,4.70917 -0.17913,7.25488 2.06381,14.29882 2.18317,6.85626 2.62874,9.81544 2.22858,14.80066 -1.42301,17.72761 -18.12751,30.17129 -35.71985,26.60879 z m 10.48608,-25.38557 c 1.90733,-0.79694 3.49986,-1.58444 3.53895,-1.75 0.0391,-0.16557 0.42208,-4.31526 0.8511,-9.22153 0.77135,-8.82128 0.74679,-8.96974 -2.20782,-13.34765 -2.6567,-3.93648 -3.31042,-4.36264 -5.89831,-3.84506 -2.7369,0.54738 -11.81604,6.10042 -11.81604,7.22699 0,0.28474 0.4829,1.42001 1.07312,2.52284 0.76438,1.42827 0.7638,2.89243 -0.002,5.08927 -0.98712,2.83166 -0.74121,3.51697 3.00404,8.37151 5.33245,6.91184 6.03908,7.21737 11.45698,4.95363 z"
         id="path3084"
         inkscape:connector-curvature="0"
         sodipodi:nodetypes="ssssscccsssssccssssssscc" />
      <path
         style="fill:#f6d2fa"
         d="m 442.92771,532.42358 c -9.62326,-2.69844 -17.75915,-11.77523 -19.68014,-21.95613 -1.23724,-6.55713 -1.03071,-9.0151 1.52734,-18.17668 0.76784,-2.75 2.34528,-9.27384 3.50542,-14.49742 1.16013,-5.22358 2.92152,-11.29858 3.9142,-13.5 0.99267,-2.20142 2.47525,-6.02758 3.29463,-8.50258 1.88163,-5.68366 3.04844,-23.91491 1.95202,-30.5 -0.92734,-5.56958 0.0549,-25.00114 1.54893,-30.6415 20.72453,-36.00155 14.10536,-7.22918 27.54215,10.60697 l 3.4592,4.53037 0.6968,22.75208 c 0.42744,13.95678 1.24364,24.93402 2.11139,28.39642 0.77802,3.10439 1.41458,9.66345 1.41458,14.57567 0,6.95194 0.55406,10.51717 2.5,16.08688 3.29733,9.43769 3.34559,17.84353 0.14175,24.69311 -2.60376,5.56667 -9.97777,12.9068 -15.12836,15.05885 -5.07002,2.11839 -13.38192,2.59322 -18.79991,1.07396 z m 11.81864,-24.08178 c 1.90733,-0.79694 3.49986,-1.58444 3.53895,-1.75 0.0391,-0.16557 0.42208,-4.31526 0.8511,-9.22153 0.77135,-8.82128 0.74679,-8.96974 -2.20782,-13.34765 -2.6567,-3.93648 -3.31042,-4.36264 -5.89831,-3.84506 -2.7369,0.54738 -11.81604,6.10042 -11.81604,7.22699 0,0.28474 0.4829,1.42001 1.07312,2.52284 0.76438,1.42827 0.7638,2.89243 -0.002,5.08927 -0.98712,2.83166 -0.74121,3.51697 3.00404,8.37151 5.33245,6.91184 6.03908,7.21737 11.45698,4.95363 z"
         id="path3082"
         inkscape:connector-curvature="0"
         sodipodi:nodetypes="ssssssscccsssssssccssssssscc" />
      <path
         style="fill:#dce2f2"
         d="m 443.80352,532.72677 c -2.15089,-0.53434 -5.40036,-1.89219 -7.22106,-3.01744 -4.81429,-2.9754 -11.18851,-10.61152 -12.35081,-14.79589 -1.43529,-5.16721 -1.25761,-13.58276 0.44598,-21.12267 0.80774,-3.575 2.42339,-10.77384 3.59033,-15.99742 1.16694,-5.22358 2.93389,-11.29858 3.92657,-13.5 0.99267,-2.20142 2.47525,-6.02758 3.29463,-8.50258 1.88163,-5.68366 3.04844,-23.91491 1.95202,-30.5 -0.92734,-5.56958 0.0549,-25.00114 1.54893,-30.6415 15.33322,-49.98011 13.20848,-8.4197 27.54215,10.60697 l 3.4592,4.53037 0.6968,22.75208 c 0.42744,13.95678 1.24364,24.93402 2.11139,28.39642 0.77802,3.10439 1.41458,9.66345 1.41458,14.57567 0,6.95194 0.55406,10.51717 2.5,16.08688 3.29733,9.43769 3.34559,17.84353 0.14175,24.69311 -2.60376,5.56667 -9.97777,12.9068 -15.12836,15.05885 -4.55086,1.90147 -13.15311,2.5624 -17.9241,1.37715 z m 12.43073,-21.44635 c 3.77126,-1.9502 4.97998,-4.32267 4.97998,-9.77469 0,-2.42908 0.49077,-5.82435 1.09061,-7.54504 0.87234,-2.50238 0.74207,-4.04119 -0.65088,-7.68857 -3.38262,-8.85725 -10.26887,-10.64376 -18.64711,-4.83764 -5.27266,3.65396 -6.55741,6.55316 -6.58343,14.85629 -0.0268,8.54496 1.06953,10.46335 7.93436,13.88424 6.05948,3.01957 7.85222,3.18643 11.87647,1.10541 z"
         id="path3080"
         inkscape:connector-curvature="0"
         sodipodi:nodetypes="sssssssscccsssssssssssssss" />
      <path
         style="fill:#fbaefd"
         d="m 439.71423,530.98457 c -9.92518,-4.67615 -15.51159,-12.58901 -16.25096,-23.01863 -0.37105,-5.23417 0.20497,-9.48154 2.66834,-19.67517 3.87234,-16.0241 4.20516,-17.1517 7.88391,-26.71084 1.70734,-4.4365 3.51352,-11.86774 4.25341,-17.5 1.40549,-10.69899 1.40963,-10.97623 0.39401,-26.40288 -0.49174,-7.46939 -0.36546,-10.8197 0.42627,-11.30901 0.61876,-0.38242 1.12753,-2.35625 1.1306,-4.38629 5.07692,-42.4925 5.31892,-28.32155 18.9853,-5.82626 2.20502,3.62953 4.00912,7.0295 4.00912,7.55549 0,0.526 1.36509,2.44663 3.03354,4.26807 l 3.03354,3.31172 -0.12954,19 c -0.12032,17.64773 0.0603,19.71172 2.53795,29 2.14076,8.02537 2.54934,11.28351 2.06913,16.5 -0.5159,5.60413 -0.1839,7.67153 2.40878,15 4.79873,13.56411 3.69326,23.3797 -3.59163,31.89046 -5.84305,6.82628 -11.3329,9.42622 -20.76966,9.83628 -6.3766,0.27708 -8.9401,-0.0479 -12.09211,-1.53294 z m 16.52002,-19.70415 c 3.77126,-1.9502 4.97998,-4.32267 4.97998,-9.77469 0,-2.42908 0.49077,-5.82435 1.09061,-7.54504 0.87234,-2.50238 0.74207,-4.04119 -0.65088,-7.68857 -3.38262,-8.85725 -10.26887,-10.64376 -18.64711,-4.83764 -5.27266,3.65396 -6.55741,6.55316 -6.58343,14.85629 -0.0268,8.54496 1.06953,10.46335 7.93436,13.88424 6.05948,3.01957 7.85222,3.18643 11.87647,1.10541 z"
         id="path3078"
         inkscape:connector-curvature="0"
         sodipodi:nodetypes="sssssssccsscsssssssssssssss" />
      <path
         style="fill:#d1d2ec"
         d="m 439.71423,530.98457 c -9.92518,-4.67615 -15.51159,-12.58901 -16.25096,-23.01863 -0.37105,-5.23417 0.20497,-9.48154 2.66834,-19.67517 3.87234,-16.0241 4.20516,-17.1517 7.88391,-26.71084 1.70734,-4.4365 3.51352,-11.86774 4.25341,-17.5 1.40549,-10.69899 1.40963,-10.97623 0.39401,-26.40288 -0.49174,-7.46939 -0.36546,-10.8197 0.42627,-11.30901 0.61876,-0.38242 1.12753,-2.35625 1.1306,-4.38629 0.003,-2.03004 0.49099,-5.43925 1.08429,-7.57601 6.04356,-40.62622 7.4154,-15.50991 17.90101,1.74975 2.20502,3.62953 4.00912,7.0295 4.00912,7.55549 0,0.526 1.36509,2.44663 3.03354,4.26807 l 3.03354,3.31172 -0.12954,19 c -0.12032,17.64773 0.0603,19.71172 2.53795,29 2.14076,8.02537 2.54934,11.28351 2.06913,16.5 -0.5159,5.60413 -0.1839,7.67153 2.40878,15 4.79873,13.56411 3.69326,23.3797 -3.59163,31.89046 -5.84305,6.82628 -11.3329,9.42622 -20.76966,9.83628 -6.3766,0.27708 -8.9401,-0.0479 -12.09211,-1.53294 z m 16.19133,-16.1406 c 3.06941,-1.39352 4.77525,-3.06064 6.37272,-6.22804 1.19977,-2.37884 3.07484,-5.17554 4.16684,-6.21489 2.51275,-2.39161 2.02529,-5.71114 -2.19204,-14.92721 -2.69052,-5.87957 -3.69832,-7.07972 -7.32916,-8.72804 -6.21402,-2.82101 -9.8453,-2.49448 -14.88195,1.33824 -5.75235,4.37733 -8.20306,9.58422 -8.04179,17.08593 0.17105,7.95662 3.39991,14.38701 8.71405,17.35436 4.88292,2.72656 7.73744,2.79573 13.19133,0.31965 z"
         id="path3076"
         inkscape:connector-curvature="0"
         sodipodi:nodetypes="ssssssscccsscssssssssssssssss" />
      <path
         style="fill:#fb8ffd"
         d="m 442.07448,531.22301 c -6.79197,-2.09108 -14.25713,-9.20432 -16.80423,-16.01205 -2.79104,-7.45974 -2.58079,-13.0579 0.95018,-25.29932 1.64659,-5.70852 2.9938,-11.14475 2.9938,-12.08052 0,-0.93577 1.12312,-3.91516 2.49581,-6.62087 1.3727,-2.70571 2.4977,-5.49322 2.5,-6.19446 0.002,-0.70124 0.90419,-3.83565 2.00419,-6.96534 1.1,-3.1297 2,-7.30871 2,-9.28668 0,-1.97798 0.90634,-7.05663 2.01409,-11.28589 1.70758,-6.51938 1.83941,-8.38327 0.86626,-12.24802 -1.21049,-4.80727 -0.65973,-14.75992 0.92735,-16.75816 0.51587,-0.64951 1.15281,-4.34167 1.41542,-8.20479 0.26262,-3.86312 1.07552,-7.98148 1.80646,-9.15191 2.99546,-25.64323 1.62275,-9.55462 12.85049,6.6203 2.26596,3.23035 4.11993,6.28719 4.11993,6.79297 0,0.50579 1.31295,2.90926 2.91768,5.34105 2.91532,4.41789 2.91728,4.43152 2.43274,16.92145 -0.26672,6.875 -0.5184,13.85 -0.55929,15.5 -0.0831,3.35213 1.29296,10.23916 3.6963,18.5 0.88007,3.025 1.73726,9.55 1.90485,14.5 0.24274,7.16926 0.87137,10.3222 3.09037,15.5 3.73148,8.70702 3.98276,18.37495 0.65568,25.22793 -3.12516,6.43709 -11.03258,13.36622 -17.41699,15.26218 -6.19209,1.83886 -10.75119,1.82321 -16.86109,-0.0579 z m 13.83108,-16.37904 c 3.06941,-1.39352 4.77525,-3.06064 6.37272,-6.22804 1.19977,-2.37884 3.07484,-5.17554 4.16684,-6.21489 2.51275,-2.39161 2.02529,-5.71114 -2.19204,-14.92721 -2.69052,-5.87957 -3.69832,-7.07972 -7.32916,-8.72804 -6.21402,-2.82101 -9.8453,-2.49448 -14.88195,1.33824 -5.75235,4.37733 -8.20306,9.58422 -8.04179,17.08593 0.17105,7.95662 3.39991,14.38701 8.71405,17.35436 4.88292,2.72656 7.73744,2.79573 13.19133,0.31965 z"
         id="path3074"
         inkscape:connector-curvature="0"
         sodipodi:nodetypes="csssscssssssccsssssssssccsssssssss" />
      <path
         style="fill:#c9b5ea"
         d="m 442.07448,531.22301 c -6.79197,-2.09108 -14.25713,-9.20432 -16.80423,-16.01205 -2.79104,-7.45974 -2.58079,-13.0579 0.95018,-25.29932 1.64659,-5.70852 2.9938,-11.14475 2.9938,-12.08052 0,-0.93577 1.12312,-3.91516 2.49581,-6.62087 1.3727,-2.70571 2.4977,-5.49322 2.5,-6.19446 0.002,-0.70124 0.90419,-3.83565 2.00419,-6.96534 1.1,-3.1297 2,-7.30871 2,-9.28668 0,-1.97798 0.90634,-7.05663 2.01409,-11.28589 1.70758,-6.51938 1.83941,-8.38327 0.86626,-12.24802 -1.21049,-4.80727 -0.65973,-14.75992 0.92735,-16.75816 0.51587,-0.64951 1.15281,-4.34167 1.41542,-8.20479 0.26262,-3.86312 1.07552,-7.98148 1.80646,-9.15191 2.99546,-25.64323 1.62275,-9.55462 12.85049,6.6203 2.26596,3.23035 4.11993,6.28719 4.11993,6.79297 0,0.50579 1.31295,2.90926 2.91768,5.34105 2.91532,4.41789 2.91728,4.43152 2.43274,16.92145 -0.26672,6.875 -0.5184,13.85 -0.55929,15.5 -0.0831,3.35213 1.29296,10.23916 3.6963,18.5 0.88007,3.025 1.73726,9.55 1.90485,14.5 0.24274,7.16926 0.87137,10.3222 3.09037,15.5 3.73148,8.70702 3.98276,18.37495 0.65568,25.22793 -3.12516,6.43709 -11.03258,13.36622 -17.41699,15.26218 -6.19209,1.83886 -10.75119,1.82321 -16.86109,-0.0579 z m 13.21747,-11.57367 c 8.02386,-2.40401 14.92228,-11.25075 14.92228,-19.13678 0,-4.96924 -3.75472,-14.63107 -6.91079,-17.78318 -1.42406,-1.42228 -4.70783,-3.39423 -7.29726,-4.38212 -10.40205,-3.96847 -19.78752,1.05177 -23.71639,12.68578 -3.61318,10.69922 -2.41295,16.14177 5.22809,23.70718 5.71637,5.65979 10.68666,7.03256 17.77407,4.90912 z"
         id="path3072"
         inkscape:connector-curvature="0"
         sodipodi:nodetypes="csssscssssssccsssssssssccsssssss" />
      <path
         style="fill:#bcc4e7"
         d="m 443.15583,530.89339 c -14.66279,-4.74069 -22.13518,-19.98806 -17.51428,-35.73779 0.78503,-2.67565 2.00215,-8.23304 2.70473,-12.34974 0.70257,-4.1167 2.30839,-9.5167 3.56849,-12 1.2601,-2.4833 2.29297,-5.0758 2.29527,-5.76111 0.002,-0.68531 0.86246,-3.83531 1.91146,-7 1.04899,-3.16469 2.15752,-8.45398 2.4634,-11.75398 0.30587,-3.3 1.4535,-8.7 2.55029,-12 1.57884,-4.75039 0.22762,-6.74279 -0.24776,-12.44656 -0.50238,-6.02782 -0.50306,-9.28021 1.2899,-13.44807 1.73292,-9.70302 0.56854,-8.05196 1.58442,-12.82172 0.38873,-1.7699 1.68533,-4.60748 2.264,-5.53408 1.69652,-26.41202 1.88603,-6.97418 12.06855,7.69496 2.26596,3.23035 4.11993,6.28719 4.11993,6.79297 0,0.50579 1.29913,2.90926 2.88696,5.34105 2.79055,4.2738 2.87879,4.78879 2.6424,15.42145 -0.34161,15.36544 -0.33573,15.31646 -1.62296,13.5 -0.84052,-1.18609 -0.96828,-0.97681 -0.61046,1 0.61599,3.4031 2.67621,11.87594 3.72597,15.32332 0.77041,2.53006 0.6906,2.68587 -0.76833,1.5 -1.4304,-1.16267 -1.52361,-1.08053 -0.7678,0.67668 0.47313,1.1 1.18149,5.15 1.57413,9 0.39263,3.85 1.18356,8.575 1.7576,10.5 0.57404,1.925 1.69156,5.75 2.48336,8.5 0.79181,2.75 2.22671,7.36823 3.18866,10.26273 4.38898,13.20636 -1.65464,27.74023 -14.02269,33.72221 -4.31301,2.08604 -15.26907,2.99376 -19.52524,1.61768 z m 12.13612,-11.24405 c 8.02386,-2.40401 14.92228,-11.25075 14.92228,-19.13678 0,-4.73803 -3.46735,-13.93532 -6.70348,-17.78124 -3.19226,-3.79379 -9.2475,-6.94055 -13.35555,-6.94055 -7.419,0 -14.79295,6.35013 -17.91652,15.42893 -3.5787,10.40166 -2.32375,15.99282 5.2792,23.52052 5.71637,5.65979 10.68666,7.03256 17.77407,4.90912 z"
         id="path3070"
         inkscape:connector-curvature="0"
         sodipodi:nodetypes="sssscssssccccsssssssssssssssssssss" />
      <path
         style="fill:#b2b0e7"
         d="m 443.15583,530.89339 c -14.47561,-4.68017 -22.29489,-20.37713 -17.59314,-35.31767 1.30531,-4.14782 2.82349,-10.54749 4.21907,-17.78495 0.37119,-1.925 1.74535,-5.33954 3.05368,-7.58786 1.30834,-2.24832 2.38867,-5.17332 2.40075,-6.5 0.0121,-1.32668 0.91208,-4.37378 2,-6.77134 1.08792,-2.39757 1.97804,-5.999 1.97804,-8.00319 0,-2.00418 0.91314,-6.79254 2.0292,-10.64079 1.66926,-5.75572 1.91261,-8.54687 1.37192,-15.73533 -0.56537,-7.51651 -0.37178,-9.40437 1.38439,-13.5 1.12293,-2.61882 2.34933,-6.56149 2.72534,-8.76149 0.73845,-4.32064 2.6507,-9.5 3.50746,-9.5 1.17391,0 9.70087,12.73289 12.9966,19.40717 2.69678,5.46134 3.39225,7.92986 2.98796,10.60549 -0.28982,1.91804 -0.48739,10.23734 -0.43905,18.48734 0.0701,11.96061 0.42713,15.64847 1.76204,18.20034 0.94401,1.8046 1.67414,5.48068 1.67414,8.429 0,2.87577 0.4203,6.61061 0.93399,8.29966 0.5137,1.68905 2.59056,8.38921 4.61526,14.88924 4.13011,13.25921 4.35823,19.98556 0.92073,27.1486 -2.42768,5.05879 -7.92414,10.56157 -13.00314,13.0181 -4.31301,2.08604 -15.26907,2.99376 -19.52524,1.61768 z m 12.13612,-11.24405 c 8.02386,-2.40401 14.92228,-11.25075 14.92228,-19.13678 0,-4.73803 -3.46735,-13.93532 -6.70348,-17.78124 -3.19226,-3.79379 -9.2475,-6.94055 -13.35555,-6.94055 -7.419,0 -14.79295,6.35013 -17.91652,15.42893 -3.5787,10.40166 -2.32375,15.99282 5.2792,23.52052 5.71637,5.65979 10.68666,7.03256 17.77407,4.90912 z"
         id="path3068"
         inkscape:connector-curvature="0" />
      <path
         style="fill:#ea62fa"
         d="m 444.54621,530.88884 c -5.27401,-1.35169 -12.24858,-6.00026 -15.27883,-10.1834 -5.79043,-7.99346 -6.38384,-19.10195 -1.62474,-30.41467 1.38827,-3.3 2.5348,-7.35358 2.54785,-9.00796 0.0131,-1.65437 1.14874,-5.12126 2.52374,-7.70419 1.375,-2.58293 2.51469,-5.95435 2.53265,-7.49204 0.0179,-1.5377 0.90326,-5.27081 1.96735,-8.29581 1.06409,-3.025 1.9494,-7.1568 1.96735,-9.18178 0.018,-2.02498 1.3322,-7.20636 2.92055,-11.51418 2.62129,-7.10932 2.84032,-8.66686 2.37252,-16.87136 -0.40697,-7.13763 -0.1739,-9.6993 1.10802,-12.17826 0.89286,-1.72662 2.04807,-6.13804 2.56711,-9.80317 0.51905,-3.66512 1.22666,-6.94679 1.57248,-7.29261 0.7462,-0.7462 4.17945,3.49888 5.11802,6.32824 0.3625,1.09278 1.80563,3.71941 3.20696,5.83696 2.62337,3.96419 4.05103,10.07528 4.59669,19.67616 0.9608,16.90524 2.47279,28.86749 4.10791,32.5 0.9903,2.2 2.11615,7.15 2.5019,11 0.76299,7.6152 3.47961,18.5571 6.95175,28 6.55729,17.83336 -4.68142,35.68462 -23.31633,37.035 -2.84621,0.20625 -6.60054,0.01 -8.34295,-0.43693 z m 10.74574,-11.2395 c 8.02386,-2.40401 14.92228,-11.25075 14.92228,-19.13678 0,-7.02674 -3.75724,-14.76111 -10.18777,-20.97179 -3.27445,-3.1625 -6.70925,-5.74012 -7.63289,-5.72804 -2.98237,0.039 -9.84679,3.68281 -13.99078,7.42666 -2.90031,2.62025 -4.62201,5.37858 -6.113,9.79365 -3.61318,10.69922 -2.41295,16.14177 5.22809,23.70718 5.71637,5.65979 10.68666,7.03256 17.77407,4.90912 z"
         id="path3066"
         inkscape:connector-curvature="0" />
      <path
         style="fill:#b2add9"
         d="m 444.54621,530.88884 c -4.95535,-1.27002 -12.00936,-5.80854 -14.88239,-9.57528 -2.93098,-3.8427 -5.44959,-11.22862 -5.44959,-15.98108 0,-1.72723 1.34205,-7.39322 2.98233,-12.59107 1.64029,-5.19785 2.99029,-10.57922 3,-11.9586 0.01,-1.37937 1.14267,-4.62126 2.51767,-7.20419 1.375,-2.58293 2.51469,-5.95435 2.53265,-7.49204 0.0179,-1.5377 0.90326,-5.27081 1.96735,-8.29581 1.06409,-3.025 1.9494,-7.1568 1.96735,-9.18178 0.018,-2.02498 1.3322,-7.20636 2.92055,-11.51418 2.62129,-7.10932 2.84032,-8.66686 2.37252,-16.87136 -0.40697,-7.13763 -0.1739,-9.6993 1.10802,-12.17826 0.89286,-1.72662 2.04807,-6.13804 2.56711,-9.80317 0.51905,-3.66512 1.22666,-6.94679 1.57248,-7.29261 0.7462,-0.7462 4.17945,3.49888 5.11802,6.32824 0.3625,1.09278 1.80563,3.71941 3.20696,5.83696 2.62337,3.96419 4.05103,10.07528 4.59669,19.67616 0.9608,16.90524 2.47279,28.86749 4.10791,32.5 0.9903,2.2 2.11615,7.15 2.5019,11 0.76299,7.6152 3.47961,18.5571 6.95175,28 6.55729,17.83336 -4.68142,35.68462 -23.31633,37.035 -2.84621,0.20625 -6.60054,0.01 -8.34295,-0.43693 z m 16.39975,-7.45934 c 9.10011,-4.70585 13.31069,-14.19901 11.49646,-25.91989 -0.5791,-3.74131 -1.77482,-7.90415 -2.65715,-9.25077 -2.17336,-3.31696 -15.70098,-14.4365 -17.57104,-14.44318 -2.9688,-0.0106 -11.97804,4.91367 -16.33131,8.92638 -4.96089,4.57279 -8.51046,11.772 -9.29926,18.86069 -0.96693,8.68943 6.49694,19.1478 16.25807,22.7808 4.70262,1.75027 13.80195,1.27077 18.10423,-0.95403 z"
         id="path3064"
         inkscape:connector-curvature="0" />
      <path
         style="fill:#918dd5"
         d="m 440.21423,528.71223 c -8.72529,-3.94502 -14.01779,-11.18878 -15.52674,-21.2512 -0.53476,-3.56606 -0.0254,-6.61185 2.42488,-14.49865 1.70602,-5.49132 3.11598,-11.03888 3.13324,-12.32791 0.0173,-1.28904 1.36726,-5.03224 3,-8.31824 1.63274,-3.286 2.96862,-7.01295 2.96862,-8.28212 0,-1.26917 0.73714,-3.98062 1.63809,-6.02546 0.90095,-2.04483 1.98423,-5.74288 2.40729,-8.21788 0.42306,-2.475 1.55786,-7.425 2.52177,-11 1.1312,-4.19544 1.78453,-10.4244 1.84271,-17.56876 0.0842,-10.3375 0.27276,-11.34501 2.85433,-15.25 1.53443,-2.32106 3.56038,-4.18124 4.55383,-4.18124 0.98431,0 3.28187,1.53958 5.10569,3.42129 3.84051,3.96239 5.00434,8.28836 5.5364,20.57871 0.84858,19.60208 1.69186,30.79605 2.67433,35.5 1.25733,6.0199 6.16898,21.54478 9.64937,30.5 6.19021,15.92772 0.92082,30.65742 -13.28381,37.13266 -5.56585,2.53722 -15.64015,2.43825 -21.5,-0.2112 z m 20.73173,-5.28273 c 9.10011,-4.70585 13.31069,-14.19901 11.49646,-25.91989 -0.5791,-3.74131 -1.77482,-7.90415 -2.65715,-9.25077 -2.17336,-3.31696 -15.70098,-14.4365 -17.57104,-14.44318 -2.9688,-0.0106 -11.97804,4.91367 -16.33131,8.92638 -4.96089,4.57279 -8.51046,11.772 -9.29926,18.86069 -0.96693,8.68943 6.49694,19.1478 16.25807,22.7808 4.70262,1.75027 13.80195,1.27077 18.10423,-0.95403 z"
         id="path3062"
         inkscape:connector-curvature="0" />
      <path
         style="fill:#9e64e3"
         d="m 442.91691,529.34845 c -6.53988,-2.33284 -11.54049,-6.34453 -14.6118,-11.72219 -4.2113,-7.37371 -4.73503,-12.94755 -2.0641,-21.96721 1.20005,-4.05255 2.53408,-7.81828 2.9645,-8.36828 0.43043,-0.55 1.10537,-2.95595 1.49987,-5.34657 0.3945,-2.39061 2.02038,-6.8238 3.61306,-9.85154 1.59269,-3.02774 2.90567,-6.47179 2.91775,-7.65344 0.0121,-1.18165 0.95024,-4.17345 2.0848,-6.64845 3.34727,-7.30192 6.1775,-22.47261 6.46716,-34.6655 0.27991,-11.78192 1.29451,-15.3345 4.37948,-15.3345 1.03566,0 2.56004,-0.25979 3.38749,-0.57732 0.82746,-0.31752 2.3885,0.30671 3.46897,1.38718 1.99595,1.99595 3.3013,9.79555 3.71376,22.19014 0.26454,7.94962 2.30972,27.71177 3.43786,33.21944 0.53168,2.5957 1.83322,6.4207 2.8923,8.5 1.05908,2.07931 2.60498,6.03056 3.43533,8.78056 0.83035,2.75 2.67559,7.475 4.10054,10.5 5.2562,11.15832 2.60788,24.56646 -6.37017,32.25133 -7.29439,6.24373 -16.9912,8.27616 -25.3168,5.30635 z m 18.02905,-5.91895 c 8.53467,-4.41345 13.08751,-13.8865 11.77263,-24.49523 -1.03223,-8.32832 -2.6393,-11.29242 -9.07304,-16.73444 -3.192,-2.69998 -6.80491,-5.94416 -8.02869,-7.20928 l -2.22505,-2.30021 -6.49886,2.94672 c -11.95395,5.42018 -19.02973,14.46665 -20.30929,25.96567 -0.96693,8.68943 6.49694,19.1478 16.25807,22.7808 4.70262,1.75027 13.80195,1.27077 18.10423,-0.95403 z"
         id="path3060"
         inkscape:connector-curvature="0" />
      <path
         style="fill:#7c84df"
         d="m 444.58105,528.36387 c -2.27325,-0.71121 -5.84072,-2.59361 -7.92771,-4.18311 -4.02887,-3.06847 -9.45012,-10.74111 -9.42266,-13.33577 0.009,-0.85482 1.02412,0.22485 2.25573,2.39927 4.61719,8.15175 14.69981,13.29665 23.92406,12.20782 12.06226,-1.42383 19.80376,-10.93969 19.80376,-24.34281 0,-4.30968 1.24364,-5.73193 2.39301,-2.73671 1.25924,3.28151 0.52705,12.9975 -1.27914,16.97402 -2.43694,5.36519 -9.33535,11.13551 -15.50169,12.96672 -5.9359,1.76277 -8.7408,1.77273 -14.24536,0.0506 z m 20.2639,-47.0731 c -3.56569,-3.025 -6.77133,-5.5 -7.12362,-5.5 -0.3523,0 -2.12904,-1.13533 -3.94832,-2.52296 -2.86004,-2.18146 -3.69701,-2.3762 -6.18328,-1.43867 -1.58152,0.59636 -4.2255,2.30752 -5.8755,3.80257 -1.65,1.49505 -4.9412,4.21171 -7.31377,6.03703 l -4.31376,3.31877 0.70714,-3.76938 c 0.38892,-2.07316 1.99262,-6.21312 3.56376,-9.19992 1.57115,-2.98679 2.86651,-6.39734 2.87859,-7.57899 0.0121,-1.18165 0.95024,-4.17345 2.0848,-6.64845 3.34727,-7.30192 6.1775,-22.47261 6.46716,-34.6655 0.27991,-11.78192 1.29451,-15.3345 4.37948,-15.3345 1.03566,0 2.56004,-0.25979 3.38749,-0.57732 0.82746,-0.31752 2.3885,0.30671 3.46897,1.38718 1.99595,1.99595 3.3013,9.79555 3.71376,22.19014 0.26454,7.94962 2.30972,27.71177 3.43786,33.21944 0.53168,2.5957 1.83322,6.4207 2.8923,8.5 1.96105,3.85017 5.35681,14.28056 4.64923,14.28056 -0.21406,0 -3.30659,-2.475 -6.87229,-5.5 z"
         id="path3058"
         inkscape:connector-curvature="0" />
      <path
         style="fill:#a938d1"
         d="m 444.58105,528.36387 c -2.27325,-0.71121 -5.84072,-2.59361 -7.92771,-4.18311 -4.02887,-3.06847 -9.45012,-10.74111 -9.42266,-13.33577 0.009,-0.85482 1.02412,0.22485 2.25573,2.39927 4.61719,8.15175 14.69981,13.29665 23.92406,12.20782 12.06226,-1.42383 19.80376,-10.93969 19.80376,-24.34281 0,-4.30968 1.24364,-5.73193 2.39301,-2.73671 1.25924,3.28151 0.52705,12.9975 -1.27914,16.97402 -2.43694,5.36519 -9.33535,11.13551 -15.50169,12.96672 -5.9359,1.76277 -8.7408,1.77273 -14.24536,0.0506 z m 18.9161,-48.16664 c -4.56991,-4.07115 -6.38598,-6.43891 -6.8546,-8.93688 -0.56013,-2.9857 -2.98473,-6.44788 -3.75515,-5.36208 -0.15317,0.21587 -1.05267,1.63 -1.99888,3.1425 -0.94622,1.5125 -2.35765,2.75 -3.13652,2.75 -0.77887,0 -3.49228,1.79689 -6.0298,3.9931 -6.05887,5.24392 -8.50797,6.56839 -8.50797,4.6011 0,-0.81189 0.37432,-1.70751 0.83182,-1.99026 0.4575,-0.28275 1.37744,-3.79681 2.04432,-7.80902 0.66688,-4.0122 2.28666,-10.21992 3.59952,-13.79492 4.88605,-13.30506 6.98838,-23.90477 7.00684,-35.32768 0.0154,-9.55127 0.24633,-10.99534 1.95863,-12.25 2.40352,-1.76113 5.96821,-1.83894 7.36105,-0.16068 1.47377,1.77579 4.06434,17.60722 3.49138,21.3365 -0.26179,1.70398 0.24006,5.20721 1.11523,7.78495 0.87516,2.57774 1.59129,7.03358 1.59138,9.90186 2.5e-4,7.5553 2.48555,19.36405 5.42525,25.77768 2.85791,6.23521 4.27359,11.95148 2.94958,11.90988 -0.48125,-0.0151 -3.67268,-2.51985 -7.09208,-5.56605 z"
         id="path3056"
         inkscape:connector-curvature="0" />
      <path
         style="fill:#6a54f2"
         d="m 463.49715,480.19723 c -4.56991,-4.07115 -6.38598,-6.43891 -6.8546,-8.93688 -0.56013,-2.9857 -2.98473,-6.44788 -3.75515,-5.36208 -0.15317,0.21587 -1.05267,1.63 -1.99888,3.1425 -0.94622,1.5125 -2.35765,2.75 -3.13652,2.75 -0.77887,0 -3.49228,1.79689 -6.0298,3.9931 -6.05887,5.24392 -8.50797,6.56839 -8.50797,4.6011 0,-0.81189 0.37432,-1.70751 0.83182,-1.99026 0.4575,-0.28275 1.37744,-3.79681 2.04432,-7.80902 0.66688,-4.0122 2.28666,-10.21992 3.59952,-13.79492 4.88605,-13.30506 6.98838,-23.90477 7.00684,-35.32768 0.0154,-9.55127 0.24633,-10.99534 1.95863,-12.25 2.40352,-1.76113 5.96821,-1.83894 7.36105,-0.16068 1.47377,1.77579 4.06434,17.60722 3.49138,21.3365 -0.26179,1.70398 0.24006,5.20721 1.11523,7.78495 0.87516,2.57774 1.59129,7.03358 1.59138,9.90186 2.5e-4,7.5553 2.48555,19.36405 5.42525,25.77768 2.85791,6.23521 4.27359,11.95148 2.94958,11.90988 -0.48125,-0.0151 -3.67268,-2.51985 -7.09208,-5.56605 z"
         id="path3054"
         inkscape:connector-curvature="0" />
      <path
         style="fill:#726dcf"
         d="m 466.47098,481.42918 c -3.48992,-3.40369 -4.55735,-5.38117 -6.01243,-11.13841 -1.60067,-6.33328 -7.52879,-17.5 -9.29029,-17.5 -1.20624,0 -2.55363,2.32679 -3.76399,6.5 -1.47567,5.08799 -7.57345,15.0748 -9.01434,14.7635 -0.60208,-0.13007 -1.84682,1.34852 -2.7661,3.28576 -0.91928,1.93724 -1.90163,3.29204 -2.18301,3.01066 -0.28138,-0.28137 -0.0568,-1.08496 0.49916,-1.78575 0.55591,-0.7008 1.54583,-4.42417 2.19982,-8.27417 0.65399,-3.85 2.25738,-9.925 3.56308,-13.5 4.8892,-13.38651 6.97542,-23.92456 6.99385,-35.32768 0.0154,-9.55127 0.24633,-10.99534 1.95863,-12.25 2.40352,-1.76113 5.96821,-1.83894 7.36105,-0.16068 1.47377,1.77579 4.06434,17.60722 3.49138,21.3365 -0.26179,1.70398 0.24006,5.20721 1.11523,7.78495 0.87516,2.57774 1.59129,7.03358 1.59138,9.90186 2.3e-4,7.04572 2.54564,19.89199 4.84977,24.476 2.35145,4.67816 4.41669,10.97489 3.98049,12.13617 -0.18174,0.48383 -2.23989,-0.98259 -4.57368,-3.25871 z m -9.93885,-48.13346 c -0.10016,-2.20272 -0.21266,-4.37545 -0.25,-4.82827 -0.0373,-0.45283 -0.83751,-0.67512 -1.77814,-0.49397 -1.02871,0.19811 -1.98778,1.68638 -2.4067,3.73468 -0.90092,4.405 -0.26839,5.89483 2.43179,5.72774 1.8938,-0.1172 2.16087,-0.66922 2.00305,-4.14018 z"
         id="path3052"
         inkscape:connector-curvature="0" />
      <path
         style="fill:#584aea"
         d="m 465.34134,480.42191 c -2.39206,-2.46797 -3.66126,-5.10505 -4.74617,-9.86133 -1.48837,-6.52507 -7.42616,-17.26981 -9.54368,-17.26981 -1.30621,0 -2.07581,1.354 -4.26293,7.5 -2.234,6.27772 -7.39811,14.22694 -8.71402,13.41367 -1.43533,-0.88708 -0.33329,-9.04555 2.12726,-15.74818 1.04294,-2.84102 2.62164,-8.09049 3.50822,-11.66549 0.88658,-3.575 2.34136,-8.45833 3.23284,-10.85185 1.01771,-2.73241 1.64888,-7.67899 1.69612,-13.29278 0.0707,-8.40544 0.20988,-8.97478 2.32301,-9.506 3.7064,-0.93175 5.00122,0.25292 6.15461,5.631 1.36399,6.36005 1.39515,9.71772 0.0976,10.51963 -0.55,0.33992 -1,0.10848 -1,-0.51431 0,-2.70827 -3.46862,-0.23825 -4.11694,2.9317 -0.90702,4.43483 -0.15212,6.30278 2.24029,5.54346 1.27802,-0.40563 2.09783,-0.012 2.54168,1.2202 0.36035,1.00042 1.48986,2.63024 2.51001,3.62182 1.40301,1.36371 1.80607,3.06888 1.65462,7 -0.27101,7.03467 2.52764,19.71899 5.50094,24.93186 2.67403,4.68818 4.17378,9.76527 2.88462,9.76527 -0.45259,0 -2.29224,-1.51599 -4.08811,-3.36886 z"
         id="path3050"
         inkscape:connector-curvature="0" />
      <path
         style="fill:#534ad0"
         d="m 466.36715,480.31215 c -1.67985,-1.91324 -3.35682,-5.17574 -3.72661,-7.25 -1.16089,-6.51189 -6.33663,-18.8385 -8.93488,-21.27943 -3.01733,-2.83464 -3.04795,-3.4796 -0.44464,-9.36483 1.94713,-4.40181 3.95321,-6.10146 3.95321,-3.34936 0,0.70277 0.90815,2.05534 2.01811,3.00572 1.6097,1.37827 1.97695,2.78927 1.81472,6.97224 -0.27435,7.0739 2.51581,19.75095 5.49777,24.97901 2.27722,3.99249 4.22333,9.76527 3.29204,9.76527 -0.2285,0 -1.78988,-1.56538 -3.46972,-3.47862 z m -28.48617,-13.02138 c 0.3308,-2.2 1.41497,-6.25 2.40926,-9 0.9943,-2.75 2.5332,-7.925 3.41978,-11.5 0.88658,-3.575 2.34136,-8.45833 3.23284,-10.85185 1.01771,-2.73241 1.64888,-7.67899 1.69612,-13.29278 0.0707,-8.40544 0.20988,-8.97478 2.32301,-9.506 1.23627,-0.31079 2.87984,-0.32251 3.65237,-0.0261 1.45471,0.55822 3.62275,8.7433 3.56946,13.47592 -0.0261,2.31743 -0.17508,2.45238 -1.04969,0.95077 -0.5606,-0.9625 -1.61682,-1.75 -2.34715,-1.75 -2.77299,0 -4.0698,3.31584 -4.26359,10.90172 -0.23195,9.0794 -0.99662,12.74475 -3.36546,16.13204 -0.97457,1.39357 -2.10177,4.29189 -2.50489,6.4407 -0.42438,2.26217 -1.88019,4.98437 -3.45809,6.46623 -1.49883,1.40762 -2.99296,3.23431 -3.32028,4.05931 -0.32733,0.825 -0.32449,-0.3 0.006,-2.5 z"
         id="path3048"
         inkscape:connector-curvature="0" />
      <path
         style="fill:#5854bb"
         d="m 465.36725,479.25817 c -2.34308,-2.97874 -2.83235,-6.92952 -0.99851,-8.06289 0.70186,-0.43377 0.88359,-0.27518 0.46352,0.40451 -0.38004,0.61492 0.22543,2.03444 1.3455,3.15451 1.12006,1.12006 1.69897,2.04336 1.28647,2.05178 -0.4125,0.008 -0.13515,0.40484 0.61633,0.88092 0.96688,0.61254 1.08471,1.36885 0.40302,2.58695 -0.86604,1.54753 -1.18071,1.44496 -3.11633,-1.01578 z m -2.99513,-14.4674 c 0,-1.375 0.22698,-1.9375 0.50439,-1.25 0.27741,0.6875 0.27741,1.8125 0,2.5 -0.27741,0.6875 -0.50439,0.125 -0.50439,-1.25 z m -22.92679,0.16399 c -1.00925,-0.64058 -0.936,-1.71177 0.35793,-5.23469 0.89475,-2.43611 2.66548,-8.40402 3.93495,-13.26202 1.26947,-4.85799 2.6268,-9.13299 3.0163,-9.5 0.3895,-0.367 0.38073,0.45772 -0.0195,1.83272 -0.70375,2.41789 -0.67733,2.43431 0.80435,0.5 1.42877,-1.86522 1.57816,-1.88094 2.21682,-0.23332 0.37664,0.97167 0.40878,2.88417 0.0714,4.25 -0.33737,1.36583 -0.90528,3.72082 -1.26203,5.23332 -0.70818,3.00248 -3.78434,7.48368 -4.58655,6.68148 -0.27538,-0.27539 -0.28199,0.6434 -0.0147,2.04174 0.47697,2.49511 -1.38529,8.54158 -2.62145,8.51147 -0.34577,-0.008 -1.19969,-0.37774 -1.89758,-0.8207 z m 19.80606,-4.56625 c -1.27699,-3.35874 -1.3263,-4.89447 -0.13348,-4.15727 0.49703,0.30718 0.0551,-1.80376 -0.9821,-4.69098 -1.29127,-3.59453 -1.64184,-6.15961 -1.11199,-8.13637 0.74766,-2.78935 0.83514,-2.82553 2.58975,-1.07092 1.38494,1.38494 1.68708,2.77683 1.27297,5.86427 -0.29865,2.22657 -0.0295,5.96836 0.59819,8.31508 0.86398,3.23032 0.8573,4.55065 -0.0275,5.43545 -0.89157,0.89157 -1.4146,0.52186 -2.20584,-1.55926 z m -8.03716,-39.4069 c 0,-1.23949 0.69441,-2.52008 1.54313,-2.84576 2.60704,-1.00042 2.96411,0.59213 0.65131,2.90492 l -2.19444,2.19444 0,-2.2536 z m -0.1875,-7.87395 c 0.72187,-0.28888 1.58437,-0.25335 1.91667,0.0789 0.33229,0.33229 -0.25834,0.56864 -1.3125,0.52522 -1.16495,-0.048 -1.4019,-0.28494 -0.60417,-0.60417 z"
         id="path3046"
         inkscape:connector-curvature="0" />
      <path
         style="fill:#4a3acd"
         d="m 465.45701,479.37229 c -1.90526,-2.42215 -3.14676,-7.58152 -1.82434,-7.58152 1.06915,0 4.69464,7.17431 4.39962,8.70622 -0.27318,1.41853 -0.73259,1.21789 -2.57528,-1.1247 z m -25.5766,-14.33152 c -0.24852,-0.4125 0.53429,-2.78359 1.73957,-5.26908 1.20527,-2.4855 2.76579,-7.73314 3.46782,-11.66142 0.70202,-3.92829 1.88552,-7.9697 2.63,-8.98092 1.28312,-1.74286 1.38924,-1.7466 2.0384,-0.0719 0.37664,0.97167 0.40878,2.88417 0.0714,4.25 -0.33737,1.36583 -0.90528,3.72082 -1.26203,5.23332 -0.35675,1.5125 -1.48175,3.82319 -2.5,5.13486 -1.01825,1.31167 -1.85136,3.428 -1.85136,4.70295 0,4.3721 -2.96629,8.93206 -4.33382,6.66219 z m 19.45837,-4.65148 c -0.65463,-1.59581 -1.02585,-3.39461 -0.82495,-3.99733 0.56466,-1.69396 2.88018,3.28062 2.42102,5.20122 -0.30424,1.27261 -0.70381,0.97122 -1.59607,-1.20389 z m -8.12455,-39.40768 c 0,-1.23949 0.69441,-2.52008 1.54313,-2.84576 2.60704,-1.00042 2.96411,0.59213 0.65131,2.90492 l -2.19444,2.19444 0,-2.2536 z"
         id="path3044"
         inkscape:connector-curvature="0" />
    </g>
  </g>
</svg>
