<?xml version="1.0" standalone="no"?>
<!DOCTYPE svg PUBLIC "-//W3C//DTD SVG 1.1//EN" "http://www.w3.org/Graphics/SVG/1.1/DTD/svg11.dtd" >
<svg xmlns="http://www.w3.org/2000/svg">
<metadata></metadata>
<defs>
<font id="cardfont" horiz-adv-x="2095" >
<font-face units-per-em="2048" ascent="1556" descent="-492" />
<missing-glyph horiz-adv-x="651" />
<glyph horiz-adv-x="0" />
<glyph unicode="&#xd;" horiz-adv-x="682" />
<glyph unicode=" "  horiz-adv-x="651" />
<glyph unicode="&#x09;" horiz-adv-x="651" />
<glyph unicode="&#xa0;" horiz-adv-x="651" />
<glyph unicode="&#x2000;" horiz-adv-x="950" />
<glyph unicode="&#x2001;" horiz-adv-x="1901" />
<glyph unicode="&#x2002;" horiz-adv-x="950" />
<glyph unicode="&#x2003;" horiz-adv-x="1901" />
<glyph unicode="&#x2004;" horiz-adv-x="633" />
<glyph unicode="&#x2005;" horiz-adv-x="475" />
<glyph unicode="&#x2006;" horiz-adv-x="316" />
<glyph unicode="&#x2007;" horiz-adv-x="316" />
<glyph unicode="&#x2008;" horiz-adv-x="237" />
<glyph unicode="&#x2009;" horiz-adv-x="380" />
<glyph unicode="&#x200a;" horiz-adv-x="105" />
<glyph unicode="&#x202f;" horiz-adv-x="380" />
<glyph unicode="&#x205f;" horiz-adv-x="475" />
<glyph unicode="&#x25fc;" horiz-adv-x="1120" d="M0 0v1120h1120v-1120h-1120z" />
<glyph unicode="&#x1f0a0;" d="M200 -252v1913q0 240 240 240h1215q240 0 240 -240v-1913q0 -240 -240 -240h-1215q-240 0 -240 240zM320 -252q0 -120 120 -120h1215q120 0 120 120v1913q0 120 -120 120h-1215q-120 0 -120 -120v-1913zM500 -192v1793h1095v-1793h-1095z" />
<glyph unicode="&#x1f0a1;" d="M200 -252v1913q0 240 240 240h1215q240 0 240 -240v-1913q0 -240 -240 -240h-1215q-240 0 -240 240zM320 -252q0 -120 120 -120h1215q120 0 120 120v1913q0 120 -120 120h-1215q-120 0 -120 -120v-1913zM423 825l288 836h154l288 -836h-132l-68 218h-330l-68 -218h-132z M653 1134h268l-134 427zM823 132q0 78 27 115q9 38 166.5 231t222.5 314q65 -121 222.5 -314t166.5 -231q27 -37 27 -115q0 -228 -195 -228q-108 0 -174 155h-30q0 -204 59 -311h-152q59 107 59 311h-30q-66 -155 -174 -155q-195 0 -195 228z" />
<glyph unicode="&#x1f0a2;" d="M200 -252v1913q0 240 240 240h1215q240 0 240 -240v-1913q0 -240 -240 -240h-1215q-240 0 -240 240zM320 -252q0 -120 120 -120h1215q120 0 120 120v1913q0 120 -120 120h-1215q-120 0 -120 -120v-1913zM440 826v110q34 31 97 87q344 305 344 399q0 66 -52 106.5 t-137 40.5q-52 0 -113 -17.5t-133 -52.5v123q77 28 143.5 42t123.5 14q145 0 232 -66t87 -174q0 -139 -331 -423q-56 -48 -87 -75h424v-114h-598zM823 132q0 78 27 115q9 38 166.5 231t222.5 314q65 -121 222.5 -314t166.5 -231q27 -37 27 -115q0 -228 -195 -228 q-108 0 -174 155h-30q0 -204 59 -311h-152q59 107 59 311h-30q-66 -155 -174 -155q-195 0 -195 228z" />
<glyph unicode="&#x1f0a3;" d="M200 -252v1913q0 240 240 240h1215q240 0 240 -240v-1913q0 -240 -240 -240h-1215q-240 0 -240 240zM320 -252q0 -120 120 -120h1215q120 0 120 120v1913q0 120 -120 120h-1215q-120 0 -120 -120v-1913zM440 852v121q52 -27 111.5 -40t126.5 -13q109 0 169 39.5t60 109.5 q0 74 -55.5 112t-163.5 38h-86v108h94q94 0 142.5 31.5t48.5 91.5q0 58 -50 88.5t-145 30.5q-40 0 -91 -9t-132 -32v115q73 17 137 26t119 9q144 0 228.5 -59t84.5 -158q0 -69 -45 -117t-127 -66q92 -18 142.5 -72.5t50.5 -136.5q0 -124 -95 -191t-272 -67 q-57 0 -119.5 10.5t-132.5 30.5zM823 132q0 78 27 115q9 38 166.5 231t222.5 314q65 -121 222.5 -314t166.5 -231q27 -37 27 -115q0 -228 -195 -228q-108 0 -174 155h-30q0 -204 59 -311h-152q59 107 59 311h-30q-66 -155 -174 -155q-195 0 -195 228z" />
<glyph unicode="&#x1f0a4;" d="M200 -252v1913q0 240 240 240h1215q240 0 240 -240v-1913q0 -240 -240 -240h-1215q-240 0 -240 240zM320 -252q0 -120 120 -120h1215q120 0 120 120v1913q0 120 -120 120h-1215q-120 0 -120 -120v-1913zM440 1012v121l392 528h166v-540h135v-109h-135v-186h-144v186h-414 zM545 1121h309v419zM823 132q0 78 27 115q9 38 166.5 231t222.5 314q65 -121 222.5 -314t166.5 -231q27 -37 27 -115q0 -228 -195 -228q-108 0 -174 155h-30q0 -204 59 -311h-152q59 107 59 311h-30q-66 -155 -174 -155q-195 0 -195 228z" />
<glyph unicode="&#x1f0a5;" d="M200 -252v1913q0 240 240 240h1215q240 0 240 -240v-1913q0 -240 -240 -240h-1215q-240 0 -240 240zM320 -252q0 -120 120 -120h1215q120 0 120 120v1913q0 120 -120 120h-1215q-120 0 -120 -120v-1913zM440 847v113q57 -27 119 -41q62 -13 131 -13q111 0 176 51t65 138 t-65 138t-176 51q-52 0 -104 -10t-106 -31v418h510v-95h-391v-204q28 9 57 13q28 4 56 4q161 0 255 -77q94 -76 94 -207q0 -135 -97 -210q-96 -74 -272 -74q-60 0 -123 9t-129 27zM823 132q0 78 27 115q9 38 166.5 231t222.5 314q65 -121 222.5 -314t166.5 -231 q27 -37 27 -115q0 -228 -195 -228q-108 0 -174 155h-30q0 -204 59 -311h-152q59 107 59 311h-30q-66 -155 -174 -155q-195 0 -195 228z" />
<glyph unicode="&#x1f0a6;" d="M200 -252v1913q0 240 240 240h1215q240 0 240 -240v-1913q0 -240 -240 -240h-1215q-240 0 -240 240zM320 -252q0 -120 120 -120h1215q120 0 120 120v1913q0 120 -120 120h-1215q-120 0 -120 -120v-1913zM440 1245q0 198 108 315q108 118 290 118q49 0 99 -8 q50 -9 104 -25v-103q-49 20 -99 30q-50 11 -99 11q-128 0 -196 -75q-68 -76 -78 -229q38 49 95 75q58 26 126 26q145 0 229 -76q84 -77 84 -209q0 -127 -88 -206q-87 -78 -232 -78q-167 0 -255 111t-88 323zM593 1095q0 -90 51 -142q51 -53 139 -53q87 0 138 53 q51 52 51 142q0 91 -51 144q-51 52 -138 52q-88 0 -139 -52q-51 -53 -51 -144zM823 132q0 78 27 115q9 38 166.5 231t222.5 314q65 -121 222.5 -314t166.5 -231q27 -37 27 -115q0 -228 -195 -228q-108 0 -174 155h-30q0 -204 59 -311h-152q59 107 59 311h-30 q-66 -155 -174 -155q-195 0 -195 228z" />
<glyph unicode="&#x1f0a7;" d="M200 -252v1913q0 240 240 240h1215q240 0 240 -240v-1913q0 -240 -240 -240h-1215q-240 0 -240 240zM320 -252q0 -120 120 -120h1215q120 0 120 120v1913q0 120 -120 120h-1215q-120 0 -120 -120v-1913zM440 1566v95h617v-48l-348 -787h-136l328 740h-461zM823 132 q0 78 27 115q9 38 166.5 231t222.5 314q65 -121 222.5 -314t166.5 -231q27 -37 27 -115q0 -228 -195 -228q-108 0 -174 155h-30q0 -204 59 -311h-152q59 107 59 311h-30q-66 -155 -174 -155q-195 0 -195 228z" />
<glyph unicode="&#x1f0a8;" d="M200 -252v1913q0 240 240 240h1215q240 0 240 -240v-1913q0 -240 -240 -240h-1215q-240 0 -240 240zM320 -252q0 -120 120 -120h1215q120 0 120 120v1913q0 120 -120 120h-1215q-120 0 -120 -120v-1913zM440 1062q0 78 53 135q54 56 147 76q-84 18 -130 67 q-47 50 -47 122q0 100 82 158t225 58t225 -58q81 -58 81 -158q0 -74 -46 -122q-47 -49 -130 -67q90 -18 146 -76q53 -55 53 -135q0 -121 -85 -186q-86 -65 -244 -65q-159 0 -244 65q-86 65 -86 186zM571 1062q0 -76 53 -119t146 -43q92 0 146 44q53 43 53 118t-53 118 q-53 44 -146 44t-146 -44q-53 -43 -53 -118zM592 1451q0 -63 47 -101q46 -37 131 -37q81 0 130 37q48 36 48 101q0 63 -48 101q-47 37 -130 37t-131 -37q-47 -36 -47 -101zM823 132q0 78 27 115q9 38 166.5 231t222.5 314q65 -121 222.5 -314t166.5 -231q27 -37 27 -115 q0 -228 -195 -228q-108 0 -174 155h-30q0 -204 59 -311h-152q59 107 59 311h-30q-66 -155 -174 -155q-195 0 -195 228z" />
<glyph unicode="&#x1f0a9;" d="M200 -252v1913q0 240 240 240h1215q240 0 240 -240v-1913q0 -240 -240 -240h-1215q-240 0 -240 240zM320 -252q0 -120 120 -120h1215q120 0 120 120v1913q0 120 -120 120h-1215q-120 0 -120 -120v-1913zM440 1394q0 129 87 206q88 78 233 78q167 0 254 -111 q88 -111 88 -323q0 -198 -107 -315q-108 -118 -290 -118q-49 0 -99 8q-50 9 -104 25v103q49 -20 99 -31q50 -10 98 -10q129 0 197 75q67 75 77 229q-35 -47 -95 -74q-57 -26 -126 -26q-144 0 -228 76t-84 208zM570 1394q0 -92 52 -144q51 -52 138 -52q88 0 139 52t51 144 q0 90 -51 142q-51 53 -139 53q-85 0 -138 -53q-52 -52 -52 -142zM823 132q0 78 27 115q9 38 166.5 231t222.5 314q65 -121 222.5 -314t166.5 -231q27 -37 27 -115q0 -228 -195 -228q-108 0 -174 155h-30q0 -204 59 -311h-152q59 107 59 311h-30q-66 -155 -174 -155 q-195 0 -195 228z" />
<glyph unicode="&#x1f0aa;" d="M200 -252v1913q0 240 240 240h1215q240 0 240 -240v-1913q0 -240 -240 -240h-1215q-240 0 -240 240zM320 -252q0 -120 120 -120h1215q120 0 120 120v1913q0 120 -120 120h-1215q-120 0 -120 -120v-1913zM440 1506v116l140 39h137v-835h-144v721zM823 132q0 78 27 115 q9 38 166.5 231t222.5 314q65 -121 222.5 -314t166.5 -231q27 -37 27 -115q0 -228 -195 -228q-108 0 -174 155h-30q0 -204 59 -311h-152q59 107 59 311h-30q-66 -155 -174 -155q-195 0 -195 228zM829 1245q0 211 70 322t232 111q131 0 216 -111t85 -322q0 -212 -85 -323 t-216 -111q-162 0 -232 111t-70 323zM959 1245q0 -173 51 -259q50 -86 121 -86t121 86q51 86 51 259q0 172 -51 258q-50 86 -121 86t-121 -86q-51 -86 -51 -258z" />
<glyph unicode="&#x1f0ab;" d="M200 -252v1913q0 240 240 240h1215q240 0 240 -240v-1913q0 -240 -240 -240h-1215q-240 0 -240 240zM320 -252q0 -120 120 -120h1215q120 0 120 120v1913q0 120 -120 120h-1215q-120 0 -120 -120v-1913zM440 825v96h40q84 0 119 42t35 150v548h127v-548q0 -149 -65 -219 q-64 -69 -207 -69h-49zM823 132q0 78 27 115q9 38 166.5 231t222.5 314q65 -121 222.5 -314t166.5 -231q27 -37 27 -115q0 -228 -195 -228q-108 0 -174 155h-30q0 -204 59 -311h-152q59 107 59 311h-30q-66 -155 -174 -155q-195 0 -195 228z" />
<glyph unicode="&#x1f0ac;" d="M200 -252v1913q0 240 240 240h1215q240 0 240 -240v-1913q0 -240 -240 -240h-1215q-240 0 -240 240zM320 -252q0 -120 120 -120h1215q120 0 120 120v1913q0 120 -120 120h-1215q-120 0 -120 -120v-1913zM440 1244q0 205 100.5 319.5t280.5 114.5q57 0 108 -11.5t99 -34.5 v-116q-47 34 -100 52t-107 18q-124 0 -186 -85t-62 -257q0 -171 61.5 -256.5t186.5 -85.5q55 0 108 18t99 52v-116q-49 -23 -99.5 -34t-107.5 -11q-181 0 -281 113.5t-100 319.5zM823 132q0 78 27 115q9 38 166.5 231t222.5 314q65 -121 222.5 -314t166.5 -231 q27 -37 27 -115q0 -228 -195 -228q-108 0 -174 155h-30q0 -204 59 -311h-152q59 107 59 311h-30q-66 -155 -174 -155q-195 0 -195 228z" />
<glyph unicode="&#x1f0ad;" d="M200 -252v1913q0 240 240 240h1215q240 0 240 -240v-1913q0 -240 -240 -240h-1215q-240 0 -240 240zM320 -252q0 -120 120 -120h1215q120 0 120 120v1913q0 120 -120 120h-1215q-120 0 -120 -120v-1913zM424 1244q0 219 78 326.5t236 107.5q159 0 237 -107.5t78 -326.5 q0 -165 -43 -265.5t-131 -140.5l126 -106l-95 -56l-147 136q-4 0 -12.5 -0.5t-13.5 -0.5q-158 0 -235.5 107.5t-77.5 325.5zM557 1244q0 -184 42.5 -263t138.5 -79q97 0 139.5 79t42.5 263t-42.5 263t-139.5 79q-96 0 -138.5 -79t-42.5 -263zM823 132q0 78 27 115 q9 38 166.5 231t222.5 314q65 -121 222.5 -314t166.5 -231q27 -37 27 -115q0 -228 -195 -228q-108 0 -174 155h-30q0 -204 59 -311h-152q59 107 59 311h-30q-66 -155 -174 -155q-195 0 -195 228z" />
<glyph unicode="&#x1f0ae;" d="M200 -252v1913q0 240 240 240h1215q240 0 240 -240v-1913q0 -240 -240 -240h-1215q-240 0 -240 240zM320 -252q0 -120 120 -120h1215q120 0 120 120v1913q0 120 -120 120h-1215q-120 0 -120 -120v-1913zM440 825v836h127v-353l362 353h164l-407 -390l440 -446h-167 l-392 403v-403h-127zM823 132q0 78 27 115q9 38 166.5 231t222.5 314q65 -121 222.5 -314t166.5 -231q27 -37 27 -115q0 -228 -195 -228q-108 0 -174 155h-30q0 -204 59 -311h-152q59 107 59 311h-30q-66 -155 -174 -155q-195 0 -195 228z" />
<glyph unicode="&#x1f0b1;" d="M200 -252v1913q0 240 240 240h1215q240 0 240 -240v-1913q0 -240 -240 -240h-1215q-240 0 -240 240zM320 -252q0 -120 120 -120h1215q120 0 120 120v1913q0 120 -120 120h-1215q-120 0 -120 -120v-1913zM423 825l288 836h154l288 -836h-132l-68 218h-330l-68 -218h-132z M653 1134h268l-134 427zM785 436q0 59 19 104q63 149 201 149q86 0 146 -71q55 -65 77 -180q22 118 77 180q62 71 146 71q139 0 201 -149q19 -45 19 -104q0 -158 -125 -317l-316 -402l-320 402q-125 157 -125 317z" />
<glyph unicode="&#x1f0b2;" d="M200 -252v1913q0 240 240 240h1215q240 0 240 -240v-1913q0 -240 -240 -240h-1215q-240 0 -240 240zM320 -252q0 -120 120 -120h1215q120 0 120 120v1913q0 120 -120 120h-1215q-120 0 -120 -120v-1913zM440 826v110q34 31 97 87q344 305 344 399q0 66 -52 106.5 t-137 40.5q-52 0 -113 -17.5t-133 -52.5v123q77 28 143.5 42t123.5 14q145 0 232 -66t87 -174q0 -139 -331 -423q-56 -48 -87 -75h424v-114h-598zM785 436q0 59 19 104q63 149 201 149q86 0 146 -71q55 -65 77 -180q22 118 77 180q62 71 146 71q139 0 201 -149 q19 -45 19 -104q0 -158 -125 -317l-316 -402l-320 402q-125 157 -125 317z" />
<glyph unicode="&#x1f0b3;" d="M200 -252v1913q0 240 240 240h1215q240 0 240 -240v-1913q0 -240 -240 -240h-1215q-240 0 -240 240zM320 -252q0 -120 120 -120h1215q120 0 120 120v1913q0 120 -120 120h-1215q-120 0 -120 -120v-1913zM440 852v121q52 -27 111.5 -40t126.5 -13q109 0 169 39.5t60 109.5 q0 74 -55.5 112t-163.5 38h-86v108h94q94 0 142.5 31.5t48.5 91.5q0 58 -50 88.5t-145 30.5q-40 0 -91 -9t-132 -32v115q73 17 137 26t119 9q144 0 228.5 -59t84.5 -158q0 -69 -45 -117t-127 -66q92 -18 142.5 -72.5t50.5 -136.5q0 -124 -95 -191t-272 -67 q-57 0 -119.5 10.5t-132.5 30.5zM785 436q0 59 19 104q63 149 201 149q86 0 146 -71q55 -65 77 -180q22 118 77 180q62 71 146 71q139 0 201 -149q19 -45 19 -104q0 -158 -125 -317l-316 -402l-320 402q-125 157 -125 317z" />
<glyph unicode="&#x1f0b4;" d="M200 -252v1913q0 240 240 240h1215q240 0 240 -240v-1913q0 -240 -240 -240h-1215q-240 0 -240 240zM320 -252q0 -120 120 -120h1215q120 0 120 120v1913q0 120 -120 120h-1215q-120 0 -120 -120v-1913zM440 1012v121l392 528h166v-540h135v-109h-135v-186h-144v186h-414 zM545 1121h309v419zM785 436q0 59 19 104q63 149 201 149q86 0 146 -71q55 -65 77 -180q22 118 77 180q62 71 146 71q139 0 201 -149q19 -45 19 -104q0 -158 -125 -317l-316 -402l-320 402q-125 157 -125 317z" />
<glyph unicode="&#x1f0b5;" d="M200 -252v1913q0 240 240 240h1215q240 0 240 -240v-1913q0 -240 -240 -240h-1215q-240 0 -240 240zM320 -252q0 -120 120 -120h1215q120 0 120 120v1913q0 120 -120 120h-1215q-120 0 -120 -120v-1913zM440 847v113q57 -27 119 -41q62 -13 131 -13q111 0 176 51t65 138 t-65 138t-176 51q-52 0 -104 -10t-106 -31v418h510v-95h-391v-204q28 9 57 13q28 4 56 4q161 0 255 -77q94 -76 94 -207q0 -135 -97 -210q-96 -74 -272 -74q-60 0 -123 9t-129 27zM785 436q0 59 19 104q63 149 201 149q86 0 146 -71q55 -65 77 -180q22 118 77 180 q62 71 146 71q139 0 201 -149q19 -45 19 -104q0 -158 -125 -317l-316 -402l-320 402q-125 157 -125 317z" />
<glyph unicode="&#x1f0b6;" d="M200 -252v1913q0 240 240 240h1215q240 0 240 -240v-1913q0 -240 -240 -240h-1215q-240 0 -240 240zM320 -252q0 -120 120 -120h1215q120 0 120 120v1913q0 120 -120 120h-1215q-120 0 -120 -120v-1913zM440 1245q0 198 108 315q108 118 290 118q49 0 99 -8 q50 -9 104 -25v-103q-49 20 -99 30q-50 11 -99 11q-128 0 -196 -75q-68 -76 -78 -229q38 49 95 75q58 26 126 26q145 0 229 -76q84 -77 84 -209q0 -127 -88 -206q-87 -78 -232 -78q-167 0 -255 111t-88 323zM593 1095q0 -90 51 -142q51 -53 139 -53q87 0 138 53 q51 52 51 142q0 91 -51 144q-51 52 -138 52q-88 0 -139 -52q-51 -53 -51 -144zM785 436q0 59 19 104q63 149 201 149q86 0 146 -71q55 -65 77 -180q22 118 77 180q62 71 146 71q139 0 201 -149q19 -45 19 -104q0 -158 -125 -317l-316 -402l-320 402q-125 157 -125 317z" />
<glyph unicode="&#x1f0b7;" d="M200 -252v1913q0 240 240 240h1215q240 0 240 -240v-1913q0 -240 -240 -240h-1215q-240 0 -240 240zM320 -252q0 -120 120 -120h1215q120 0 120 120v1913q0 120 -120 120h-1215q-120 0 -120 -120v-1913zM440 1566v95h617v-48l-348 -787h-136l328 740h-461zM785 436 q0 59 19 104q63 149 201 149q86 0 146 -71q55 -65 77 -180q22 118 77 180q62 71 146 71q139 0 201 -149q19 -45 19 -104q0 -158 -125 -317l-316 -402l-320 402q-125 157 -125 317z" />
<glyph unicode="&#x1f0b8;" d="M200 -252v1913q0 240 240 240h1215q240 0 240 -240v-1913q0 -240 -240 -240h-1215q-240 0 -240 240zM320 -252q0 -120 120 -120h1215q120 0 120 120v1913q0 120 -120 120h-1215q-120 0 -120 -120v-1913zM440 1062q0 78 53 135q54 56 147 76q-84 18 -130 67 q-47 50 -47 122q0 100 82 158t225 58t225 -58q81 -58 81 -158q0 -74 -46 -122q-47 -49 -130 -67q90 -18 146 -76q53 -55 53 -135q0 -121 -85 -186q-86 -65 -244 -65q-159 0 -244 65q-86 65 -86 186zM571 1062q0 -76 53 -119t146 -43q92 0 146 44q53 43 53 118t-53 118 q-53 44 -146 44t-146 -44q-53 -43 -53 -118zM592 1451q0 -63 47 -101q46 -37 131 -37q81 0 130 37q48 36 48 101q0 63 -48 101q-47 37 -130 37t-131 -37q-47 -36 -47 -101zM785 436q0 59 19 104q63 149 201 149q86 0 146 -71q55 -65 77 -180q22 118 77 180q62 71 146 71 q139 0 201 -149q19 -45 19 -104q0 -158 -125 -317l-316 -402l-320 402q-125 157 -125 317z" />
<glyph unicode="&#x1f0b9;" d="M200 -252v1913q0 240 240 240h1215q240 0 240 -240v-1913q0 -240 -240 -240h-1215q-240 0 -240 240zM320 -252q0 -120 120 -120h1215q120 0 120 120v1913q0 120 -120 120h-1215q-120 0 -120 -120v-1913zM440 1394q0 129 87 206q88 78 233 78q167 0 254 -111 q88 -111 88 -323q0 -198 -107 -315q-108 -118 -290 -118q-49 0 -99 8q-50 9 -104 25v103q49 -20 99 -31q50 -10 98 -10q129 0 197 75q67 75 77 229q-35 -47 -95 -74q-57 -26 -126 -26q-144 0 -228 76t-84 208zM570 1394q0 -92 52 -144q51 -52 138 -52q88 0 139 52t51 144 q0 90 -51 142q-51 53 -139 53q-85 0 -138 -53q-52 -52 -52 -142zM785 436q0 59 19 104q63 149 201 149q86 0 146 -71q55 -65 77 -180q22 118 77 180q62 71 146 71q139 0 201 -149q19 -45 19 -104q0 -158 -125 -317l-316 -402l-320 402q-125 157 -125 317z" />
<glyph unicode="&#x1f0ba;" d="M200 -252v1913q0 240 240 240h1215q240 0 240 -240v-1913q0 -240 -240 -240h-1215q-240 0 -240 240zM320 -252q0 -120 120 -120h1215q120 0 120 120v1913q0 120 -120 120h-1215q-120 0 -120 -120v-1913zM440 1506v116l140 39h137v-835h-144v721zM785 436q0 59 19 104 q63 149 201 149q86 0 146 -71q55 -65 77 -180q22 118 77 180q62 71 146 71q139 0 201 -149q19 -45 19 -104q0 -158 -125 -317l-316 -402l-320 402q-125 157 -125 317zM829 1245q0 211 70 322t232 111q131 0 216 -111t85 -322q0 -212 -85 -323t-216 -111q-162 0 -232 111 t-70 323zM959 1245q0 -173 51 -259q50 -86 121 -86t121 86q51 86 51 259q0 172 -51 258q-50 86 -121 86t-121 -86q-51 -86 -51 -258z" />
<glyph unicode="&#x1f0bb;" d="M200 -252v1913q0 240 240 240h1215q240 0 240 -240v-1913q0 -240 -240 -240h-1215q-240 0 -240 240zM320 -252q0 -120 120 -120h1215q120 0 120 120v1913q0 120 -120 120h-1215q-120 0 -120 -120v-1913zM440 825v96h40q84 0 119 42t35 150v548h127v-548q0 -149 -65 -219 q-64 -69 -207 -69h-49zM785 436q0 59 19 104q63 149 201 149q86 0 146 -71q55 -65 77 -180q22 118 77 180q62 71 146 71q139 0 201 -149q19 -45 19 -104q0 -158 -125 -317l-316 -402l-320 402q-125 157 -125 317z" />
<glyph unicode="&#x1f0bc;" d="M200 -252v1913q0 240 240 240h1215q240 0 240 -240v-1913q0 -240 -240 -240h-1215q-240 0 -240 240zM320 -252q0 -120 120 -120h1215q120 0 120 120v1913q0 120 -120 120h-1215q-120 0 -120 -120v-1913zM440 1244q0 205 100.5 319.5t280.5 114.5q57 0 108 -11.5t99 -34.5 v-116q-47 34 -100 52t-107 18q-124 0 -186 -85t-62 -257q0 -171 61.5 -256.5t186.5 -85.5q55 0 108 18t99 52v-116q-49 -23 -99.5 -34t-107.5 -11q-181 0 -281 113.5t-100 319.5zM785 436q0 59 19 104q63 149 201 149q86 0 146 -71q55 -65 77 -180q22 118 77 180 q62 71 146 71q139 0 201 -149q19 -45 19 -104q0 -158 -125 -317l-316 -402l-320 402q-125 157 -125 317z" />
<glyph unicode="&#x1f0bd;" horiz-adv-x="2112" d="M217 -252v1913q0 240 240 240h1215q240 0 240 -240v-1913q0 -240 -240 -240h-1215q-240 0 -240 240zM337 -252q0 -120 120 -120h1215q120 0 120 120v1913q0 120 -120 120h-1215q-120 0 -120 -120v-1913zM424 1244q0 219 78 326.5t236 107.5q159 0 237 -107.5t78 -326.5 q0 -165 -43 -265.5t-131 -140.5l126 -106l-95 -56l-147 136q-4 0 -12.5 -0.5t-13.5 -0.5q-158 0 -235.5 107.5t-77.5 325.5zM557 1244q0 -184 42.5 -263t138.5 -79q97 0 139.5 79t42.5 263t-42.5 263t-139.5 79q-96 0 -138.5 -79t-42.5 -263zM785 436q0 59 19 104 q63 149 201 149q86 0 146 -71q55 -65 77 -180q22 118 77 180q62 71 146 71q139 0 201 -149q19 -45 19 -104q0 -158 -125 -317l-316 -402l-320 402q-125 157 -125 317z" />
<glyph unicode="&#x1f0be;" d="M200 -252v1913q0 240 240 240h1215q240 0 240 -240v-1913q0 -240 -240 -240h-1215q-240 0 -240 240zM320 -252q0 -120 120 -120h1215q120 0 120 120v1913q0 120 -120 120h-1215q-120 0 -120 -120v-1913zM440 825v836h127v-353l362 353h164l-407 -390l440 -446h-167 l-392 403v-403h-127zM785 436q0 59 19 104q63 149 201 149q86 0 146 -71q55 -65 77 -180q22 118 77 180q62 71 146 71q139 0 201 -149q19 -45 19 -104q0 -158 -125 -317l-316 -402l-320 402q-125 157 -125 317z" />
<glyph unicode="&#x1f0c1;" d="M200 -252v1913q0 240 240 240h1215q240 0 240 -240v-1913q0 -240 -240 -240h-1215q-240 0 -240 240zM320 -252q0 -120 120 -120h1215q120 0 120 120v1913q0 120 -120 120h-1215q-120 0 -120 -120v-1913zM423 825l288 836h154l288 -836h-132l-68 218h-330l-68 -218h-132z M653 1134h268l-134 427zM816 235l410 526l408 -526l-408 -518z" />
<glyph unicode="&#x1f0c2;" d="M200 -252v1913q0 240 240 240h1215q240 0 240 -240v-1913q0 -240 -240 -240h-1215q-240 0 -240 240zM320 -252q0 -120 120 -120h1215q120 0 120 120v1913q0 120 -120 120h-1215q-120 0 -120 -120v-1913zM440 826v110q34 31 97 87q344 305 344 399q0 66 -52 106.5 t-137 40.5q-52 0 -113 -17.5t-133 -52.5v123q77 28 143.5 42t123.5 14q145 0 232 -66t87 -174q0 -139 -331 -423q-56 -48 -87 -75h424v-114h-598zM816 235l410 526l408 -526l-408 -518z" />
<glyph unicode="&#x1f0c3;" d="M200 -252v1913q0 240 240 240h1215q240 0 240 -240v-1913q0 -240 -240 -240h-1215q-240 0 -240 240zM320 -252q0 -120 120 -120h1215q120 0 120 120v1913q0 120 -120 120h-1215q-120 0 -120 -120v-1913zM440 852v121q52 -27 111.5 -40t126.5 -13q109 0 169 39.5t60 109.5 q0 74 -55.5 112t-163.5 38h-86v108h94q94 0 142.5 31.5t48.5 91.5q0 58 -50 88.5t-145 30.5q-40 0 -91 -9t-132 -32v115q73 17 137 26t119 9q144 0 228.5 -59t84.5 -158q0 -69 -45 -117t-127 -66q92 -18 142.5 -72.5t50.5 -136.5q0 -124 -95 -191t-272 -67 q-57 0 -119.5 10.5t-132.5 30.5zM816 235l410 526l408 -526l-408 -518z" />
<glyph unicode="&#x1f0c4;" d="M200 -252v1913q0 240 240 240h1215q240 0 240 -240v-1913q0 -240 -240 -240h-1215q-240 0 -240 240zM320 -252q0 -120 120 -120h1215q120 0 120 120v1913q0 120 -120 120h-1215q-120 0 -120 -120v-1913zM440 1012v121l392 528h166v-540h135v-109h-135v-186h-144v186h-414 zM545 1121h309v419zM816 235l410 526l408 -526l-408 -518z" />
<glyph unicode="&#x1f0c5;" d="M200 -252v1913q0 240 240 240h1215q240 0 240 -240v-1913q0 -240 -240 -240h-1215q-240 0 -240 240zM320 -252q0 -120 120 -120h1215q120 0 120 120v1913q0 120 -120 120h-1215q-120 0 -120 -120v-1913zM440 847v113q57 -27 119 -41q62 -13 131 -13q111 0 176 51t65 138 t-65 138t-176 51q-52 0 -104 -10t-106 -31v418h510v-95h-391v-204q28 9 57 13q28 4 56 4q161 0 255 -77q94 -76 94 -207q0 -135 -97 -210q-96 -74 -272 -74q-60 0 -123 9t-129 27zM816 235l410 526l408 -526l-408 -518z" />
<glyph unicode="&#x1f0c6;" d="M200 -252v1913q0 240 240 240h1215q240 0 240 -240v-1913q0 -240 -240 -240h-1215q-240 0 -240 240zM320 -252q0 -120 120 -120h1215q120 0 120 120v1913q0 120 -120 120h-1215q-120 0 -120 -120v-1913zM440 1245q0 198 108 315q108 118 290 118q49 0 99 -8 q50 -9 104 -25v-103q-49 20 -99 30q-50 11 -99 11q-128 0 -196 -75q-68 -76 -78 -229q38 49 95 75q58 26 126 26q145 0 229 -76q84 -77 84 -209q0 -127 -88 -206q-87 -78 -232 -78q-167 0 -255 111t-88 323zM593 1095q0 -90 51 -142q51 -53 139 -53q87 0 138 53 q51 52 51 142q0 91 -51 144q-51 52 -138 52q-88 0 -139 -52q-51 -53 -51 -144zM816 235l410 526l408 -526l-408 -518z" />
<glyph unicode="&#x1f0c7;" d="M200 -252v1913q0 240 240 240h1215q240 0 240 -240v-1913q0 -240 -240 -240h-1215q-240 0 -240 240zM320 -252q0 -120 120 -120h1215q120 0 120 120v1913q0 120 -120 120h-1215q-120 0 -120 -120v-1913zM440 1566v95h617v-48l-348 -787h-136l328 740h-461zM816 235 l410 526l408 -526l-408 -518z" />
<glyph unicode="&#x1f0c8;" d="M200 -252v1913q0 240 240 240h1215q240 0 240 -240v-1913q0 -240 -240 -240h-1215q-240 0 -240 240zM320 -252q0 -120 120 -120h1215q120 0 120 120v1913q0 120 -120 120h-1215q-120 0 -120 -120v-1913zM440 1062q0 78 53 135q54 56 147 76q-84 18 -130 67 q-47 50 -47 122q0 100 82 158t225 58t225 -58q81 -58 81 -158q0 -74 -46 -122q-47 -49 -130 -67q90 -18 146 -76q53 -55 53 -135q0 -121 -85 -186q-86 -65 -244 -65q-159 0 -244 65q-86 65 -86 186zM571 1062q0 -76 53 -119t146 -43q92 0 146 44q53 43 53 118t-53 118 q-53 44 -146 44t-146 -44q-53 -43 -53 -118zM592 1451q0 -63 47 -101q46 -37 131 -37q81 0 130 37q48 36 48 101q0 63 -48 101q-47 37 -130 37t-131 -37q-47 -36 -47 -101zM816 235l410 526l408 -526l-408 -518z" />
<glyph unicode="&#x1f0c9;" d="M200 -252v1913q0 240 240 240h1215q240 0 240 -240v-1913q0 -240 -240 -240h-1215q-240 0 -240 240zM320 -252q0 -120 120 -120h1215q120 0 120 120v1913q0 120 -120 120h-1215q-120 0 -120 -120v-1913zM440 1394q0 129 87 206q88 78 233 78q167 0 254 -111 q88 -111 88 -323q0 -198 -107 -315q-108 -118 -290 -118q-49 0 -99 8q-50 9 -104 25v103q49 -20 99 -31q50 -10 98 -10q129 0 197 75q67 75 77 229q-35 -47 -95 -74q-57 -26 -126 -26q-144 0 -228 76t-84 208zM570 1394q0 -92 52 -144q51 -52 138 -52q88 0 139 52t51 144 q0 90 -51 142q-51 53 -139 53q-85 0 -138 -53q-52 -52 -52 -142zM816 235l410 526l408 -526l-408 -518z" />
<glyph unicode="&#x1f0ca;" d="M200 -252v1913q0 240 240 240h1215q240 0 240 -240v-1913q0 -240 -240 -240h-1215q-240 0 -240 240zM320 -252q0 -120 120 -120h1215q120 0 120 120v1913q0 120 -120 120h-1215q-120 0 -120 -120v-1913zM440 1506v116l140 39h137v-835h-144v721zM816 235l410 526 l408 -526l-408 -518zM829 1245q0 211 70 322t232 111q131 0 216 -111t85 -322q0 -212 -85 -323t-216 -111q-162 0 -232 111t-70 323zM959 1245q0 -173 51 -259q50 -86 121 -86t121 86q51 86 51 259q0 172 -51 258q-50 86 -121 86t-121 -86q-51 -86 -51 -258z" />
<glyph unicode="&#x1f0cb;" d="M200 -252v1913q0 240 240 240h1215q240 0 240 -240v-1913q0 -240 -240 -240h-1215q-240 0 -240 240zM320 -252q0 -120 120 -120h1215q120 0 120 120v1913q0 120 -120 120h-1215q-120 0 -120 -120v-1913zM440 825v96h40q84 0 119 42t35 150v548h127v-548q0 -149 -65 -219 q-64 -69 -207 -69h-49zM816 235l410 526l408 -526l-408 -518z" />
<glyph unicode="&#x1f0cc;" d="M200 -252v1913q0 240 240 240h1215q240 0 240 -240v-1913q0 -240 -240 -240h-1215q-240 0 -240 240zM320 -252q0 -120 120 -120h1215q120 0 120 120v1913q0 120 -120 120h-1215q-120 0 -120 -120v-1913zM440 1244q0 205 100.5 319.5t280.5 114.5q57 0 108 -11.5t99 -34.5 v-116q-47 34 -100 52t-107 18q-124 0 -186 -85t-62 -257q0 -171 61.5 -256.5t186.5 -85.5q55 0 108 18t99 52v-116q-49 -23 -99.5 -34t-107.5 -11q-181 0 -281 113.5t-100 319.5zM816 235l410 526l408 -526l-408 -518z" />
<glyph unicode="&#x1f0cd;" d="M200 -252v1913q0 240 240 240h1215q240 0 240 -240v-1913q0 -240 -240 -240h-1215q-240 0 -240 240zM320 -252q0 -120 120 -120h1215q120 0 120 120v1913q0 120 -120 120h-1215q-120 0 -120 -120v-1913zM424 1244q0 219 78 326.5t236 107.5q159 0 237 -107.5t78 -326.5 q0 -165 -43 -265.5t-131 -140.5l126 -106l-95 -56l-147 136q-4 0 -12.5 -0.5t-13.5 -0.5q-158 0 -235.5 107.5t-77.5 325.5zM557 1244q0 -184 42.5 -263t138.5 -79q97 0 139.5 79t42.5 263t-42.5 263t-139.5 79q-96 0 -138.5 -79t-42.5 -263zM816 235l410 526l408 -526 l-408 -518z" />
<glyph unicode="&#x1f0ce;" d="M200 -252v1913q0 240 240 240h1215q240 0 240 -240v-1913q0 -240 -240 -240h-1215q-240 0 -240 240zM320 -252q0 -120 120 -120h1215q120 0 120 120v1913q0 120 -120 120h-1215q-120 0 -120 -120v-1913zM440 825v836h127v-353l362 353h164l-407 -390l440 -446h-167 l-392 403v-403h-127zM816 235l410 526l408 -526l-408 -518z" />
<glyph unicode="&#x1f0cf;" d="M200 -252v1913q0 240 240 240h1215q240 0 240 -240v-1913q0 -240 -240 -240h-1215q-240 0 -240 240zM320 -252q0 -120 120 -120h1215q120 0 120 120v1913q0 120 -120 120h-1215q-120 0 -120 -120v-1913zM440 888h464l144 441l142 -441h465l-375 -273l143 -441l-375 273 l-377 -273l144 441z" />
<glyph unicode="&#x1f0d1;" d="M200 -252v1913q0 240 240 240h1215q240 0 240 -240v-1913q0 -240 -240 -240h-1215q-240 0 -240 240zM320 -252q0 -120 120 -120h1215q120 0 120 120v1913q0 120 -120 120h-1215q-120 0 -120 -120v-1913zM423 825l288 836h154l288 -836h-132l-68 218h-330l-68 -218h-132z M653 1134h268l-134 427zM700 112q0 52 16 88q63 141 234 141q75 0 124 -19q-124 130 -124 236q0 234 236 234t236 -234q0 -106 -124 -236q49 19 124 19q171 0 234 -141q16 -36 16 -88q0 -146 -146 -216q-25 -12 -78 -13q-169 -5 -242 192q0 -251 57 -327h-154q57 76 57 327 q-72 -195 -242 -192q-53 1 -78 13q-146 67 -146 216z" />
<glyph unicode="&#x1f0d2;" d="M200 -252v1913q0 240 240 240h1215q240 0 240 -240v-1913q0 -240 -240 -240h-1215q-240 0 -240 240zM320 -252q0 -120 120 -120h1215q120 0 120 120v1913q0 120 -120 120h-1215q-120 0 -120 -120v-1913zM440 826v110q34 31 97 87q344 305 344 399q0 66 -52 106.5 t-137 40.5q-52 0 -113 -17.5t-133 -52.5v123q77 28 143.5 42t123.5 14q145 0 232 -66t87 -174q0 -139 -331 -423q-56 -48 -87 -75h424v-114h-598zM700 112q0 52 16 88q63 141 234 141q75 0 124 -19q-124 130 -124 236q0 234 236 234t236 -234q0 -106 -124 -236q49 19 124 19 q171 0 234 -141q16 -36 16 -88q0 -146 -146 -216q-25 -12 -78 -13q-169 -5 -242 192q0 -251 57 -327h-154q57 76 57 327q-72 -195 -242 -192q-53 1 -78 13q-146 67 -146 216z" />
<glyph unicode="&#x1f0d3;" d="M200 -252v1913q0 240 240 240h1215q240 0 240 -240v-1913q0 -240 -240 -240h-1215q-240 0 -240 240zM320 -252q0 -120 120 -120h1215q120 0 120 120v1913q0 120 -120 120h-1215q-120 0 -120 -120v-1913zM440 852v121q52 -27 111.5 -40t126.5 -13q109 0 169 39.5t60 109.5 q0 74 -55.5 112t-163.5 38h-86v108h94q94 0 142.5 31.5t48.5 91.5q0 58 -50 88.5t-145 30.5q-40 0 -91 -9t-132 -32v115q73 17 137 26t119 9q144 0 228.5 -59t84.5 -158q0 -69 -45 -117t-127 -66q92 -18 142.5 -72.5t50.5 -136.5q0 -124 -95 -191t-272 -67 q-57 0 -119.5 10.5t-132.5 30.5zM700 112q0 52 16 88q63 141 234 141q75 0 124 -19q-124 130 -124 236q0 234 236 234t236 -234q0 -106 -124 -236q49 19 124 19q171 0 234 -141q16 -36 16 -88q0 -146 -146 -216q-25 -12 -78 -13q-169 -5 -242 192q0 -251 57 -327h-154 q57 76 57 327q-72 -195 -242 -192q-53 1 -78 13q-146 67 -146 216z" />
<glyph unicode="&#x1f0d4;" d="M200 -252v1913q0 240 240 240h1215q240 0 240 -240v-1913q0 -240 -240 -240h-1215q-240 0 -240 240zM320 -252q0 -120 120 -120h1215q120 0 120 120v1913q0 120 -120 120h-1215q-120 0 -120 -120v-1913zM440 1012v121l392 528h166v-540h135v-109h-135v-186h-144v186h-414 zM545 1121h309v419zM700 112q0 52 16 88q63 141 234 141q75 0 124 -19q-124 130 -124 236q0 234 236 234t236 -234q0 -106 -124 -236q49 19 124 19q171 0 234 -141q16 -36 16 -88q0 -146 -146 -216q-25 -12 -78 -13q-169 -5 -242 192q0 -251 57 -327h-154q57 76 57 327 q-72 -195 -242 -192q-53 1 -78 13q-146 67 -146 216z" />
<glyph unicode="&#x1f0d5;" d="M200 -252v1913q0 240 240 240h1215q240 0 240 -240v-1913q0 -240 -240 -240h-1215q-240 0 -240 240zM320 -252q0 -120 120 -120h1215q120 0 120 120v1913q0 120 -120 120h-1215q-120 0 -120 -120v-1913zM440 847v113q57 -27 119 -41q62 -13 131 -13q111 0 176 51t65 138 t-65 138t-176 51q-52 0 -104 -10t-106 -31v418h510v-95h-391v-204q28 9 57 13q28 4 56 4q161 0 255 -77q94 -76 94 -207q0 -135 -97 -210q-96 -74 -272 -74q-60 0 -123 9t-129 27zM700 112q0 52 16 88q63 141 234 141q75 0 124 -19q-124 130 -124 236q0 234 236 234 t236 -234q0 -106 -124 -236q49 19 124 19q171 0 234 -141q16 -36 16 -88q0 -146 -146 -216q-25 -12 -78 -13q-169 -5 -242 192q0 -251 57 -327h-154q57 76 57 327q-72 -195 -242 -192q-53 1 -78 13q-146 67 -146 216z" />
<glyph unicode="&#x1f0d6;" d="M200 -252v1913q0 240 240 240h1215q240 0 240 -240v-1913q0 -240 -240 -240h-1215q-240 0 -240 240zM320 -252q0 -120 120 -120h1215q120 0 120 120v1913q0 120 -120 120h-1215q-120 0 -120 -120v-1913zM440 1245q0 198 108 315q108 118 290 118q49 0 99 -8 q50 -9 104 -25v-103q-49 20 -99 30q-50 11 -99 11q-128 0 -196 -75q-68 -76 -78 -229q38 49 95 75q58 26 126 26q145 0 229 -76q84 -77 84 -209q0 -127 -88 -206q-87 -78 -232 -78q-167 0 -255 111t-88 323zM593 1095q0 -90 51 -142q51 -53 139 -53q87 0 138 53 q51 52 51 142q0 91 -51 144q-51 52 -138 52q-88 0 -139 -52q-51 -53 -51 -144zM700 112q0 52 16 88q63 141 234 141q75 0 124 -19q-124 130 -124 236q0 234 236 234t236 -234q0 -106 -124 -236q49 19 124 19q171 0 234 -141q16 -36 16 -88q0 -146 -146 -216q-25 -12 -78 -13 q-169 -5 -242 192q0 -251 57 -327h-154q57 76 57 327q-72 -195 -242 -192q-53 1 -78 13q-146 67 -146 216z" />
<glyph unicode="&#x1f0d7;" d="M200 -252v1913q0 240 240 240h1215q240 0 240 -240v-1913q0 -240 -240 -240h-1215q-240 0 -240 240zM320 -252q0 -120 120 -120h1215q120 0 120 120v1913q0 120 -120 120h-1215q-120 0 -120 -120v-1913zM440 1566v95h617v-48l-348 -787h-136l328 740h-461zM700 112 q0 52 16 88q63 141 234 141q75 0 124 -19q-124 130 -124 236q0 234 236 234t236 -234q0 -106 -124 -236q49 19 124 19q171 0 234 -141q16 -36 16 -88q0 -146 -146 -216q-25 -12 -78 -13q-169 -5 -242 192q0 -251 57 -327h-154q57 76 57 327q-72 -195 -242 -192q-53 1 -78 13 q-146 67 -146 216z" />
<glyph unicode="&#x1f0d8;" d="M200 -252v1913q0 240 240 240h1215q240 0 240 -240v-1913q0 -240 -240 -240h-1215q-240 0 -240 240zM320 -252q0 -120 120 -120h1215q120 0 120 120v1913q0 120 -120 120h-1215q-120 0 -120 -120v-1913zM440 1062q0 78 53 135q54 56 147 76q-84 18 -130 67 q-47 50 -47 122q0 100 82 158t225 58t225 -58q81 -58 81 -158q0 -74 -46 -122q-47 -49 -130 -67q90 -18 146 -76q53 -55 53 -135q0 -121 -85 -186q-86 -65 -244 -65q-159 0 -244 65q-86 65 -86 186zM571 1062q0 -76 53 -119t146 -43q92 0 146 44q53 43 53 118t-53 118 q-53 44 -146 44t-146 -44q-53 -43 -53 -118zM592 1451q0 -63 47 -101q46 -37 131 -37q81 0 130 37q48 36 48 101q0 63 -48 101q-47 37 -130 37t-131 -37q-47 -36 -47 -101zM700 112q0 52 16 88q63 141 234 141q75 0 124 -19q-124 130 -124 236q0 234 236 234t236 -234 q0 -106 -124 -236q49 19 124 19q171 0 234 -141q16 -36 16 -88q0 -146 -146 -216q-25 -12 -78 -13q-169 -5 -242 192q0 -251 57 -327h-154q57 76 57 327q-72 -195 -242 -192q-53 1 -78 13q-146 67 -146 216z" />
<glyph unicode="&#x1f0d9;" d="M200 -252v1913q0 240 240 240h1215q240 0 240 -240v-1913q0 -240 -240 -240h-1215q-240 0 -240 240zM320 -252q0 -120 120 -120h1215q120 0 120 120v1913q0 120 -120 120h-1215q-120 0 -120 -120v-1913zM440 1394q0 129 87 206q88 78 233 78q167 0 254 -111 q88 -111 88 -323q0 -198 -107 -315q-108 -118 -290 -118q-49 0 -99 8q-50 9 -104 25v103q49 -20 99 -31q50 -10 98 -10q129 0 197 75q67 75 77 229q-35 -47 -95 -74q-57 -26 -126 -26q-144 0 -228 76t-84 208zM570 1394q0 -92 52 -144q51 -52 138 -52q88 0 139 52t51 144 q0 90 -51 142q-51 53 -139 53q-85 0 -138 -53q-52 -52 -52 -142zM700 112q0 52 16 88q63 141 234 141q75 0 124 -19q-124 130 -124 236q0 234 236 234t236 -234q0 -106 -124 -236q49 19 124 19q171 0 234 -141q16 -36 16 -88q0 -146 -146 -216q-25 -12 -78 -13 q-169 -5 -242 192q0 -251 57 -327h-154q57 76 57 327q-72 -195 -242 -192q-53 1 -78 13q-146 67 -146 216z" />
<glyph unicode="&#x1f0da;" d="M200 -252v1913q0 240 240 240h1215q240 0 240 -240v-1913q0 -240 -240 -240h-1215q-240 0 -240 240zM320 -252q0 -120 120 -120h1215q120 0 120 120v1913q0 120 -120 120h-1215q-120 0 -120 -120v-1913zM440 1506v116l140 39h137v-835h-144v721zM700 112q0 52 16 88 q63 141 234 141q75 0 124 -19q-124 130 -124 236q0 234 236 234t236 -234q0 -106 -124 -236q49 19 124 19q171 0 234 -141q16 -36 16 -88q0 -146 -146 -216q-25 -12 -78 -13q-169 -5 -242 192q0 -251 57 -327h-154q57 76 57 327q-72 -195 -242 -192q-53 1 -78 13 q-146 67 -146 216zM829 1245q0 211 70 322t232 111q131 0 216 -111t85 -322q0 -212 -85 -323t-216 -111q-162 0 -232 111t-70 323zM959 1245q0 -173 51 -259q50 -86 121 -86t121 86q51 86 51 259q0 172 -51 258q-50 86 -121 86t-121 -86q-51 -86 -51 -258z" />
<glyph unicode="&#x1f0db;" d="M200 -252v1913q0 240 240 240h1215q240 0 240 -240v-1913q0 -240 -240 -240h-1215q-240 0 -240 240zM320 -252q0 -120 120 -120h1215q120 0 120 120v1913q0 120 -120 120h-1215q-120 0 -120 -120v-1913zM440 825v96h40q84 0 119 42t35 150v548h127v-548q0 -149 -65 -219 q-64 -69 -207 -69h-49zM700 112q0 52 16 88q63 141 234 141q75 0 124 -19q-124 130 -124 236q0 234 236 234t236 -234q0 -106 -124 -236q49 19 124 19q171 0 234 -141q16 -36 16 -88q0 -146 -146 -216q-25 -12 -78 -13q-169 -5 -242 192q0 -251 57 -327h-154q57 76 57 327 q-72 -195 -242 -192q-53 1 -78 13q-146 67 -146 216z" />
<glyph unicode="&#x1f0dc;" d="M200 -252v1913q0 240 240 240h1215q240 0 240 -240v-1913q0 -240 -240 -240h-1215q-240 0 -240 240zM320 -252q0 -120 120 -120h1215q120 0 120 120v1913q0 120 -120 120h-1215q-120 0 -120 -120v-1913zM440 1244q0 205 100.5 319.5t280.5 114.5q57 0 108 -11.5t99 -34.5 v-116q-47 34 -100 52t-107 18q-124 0 -186 -85t-62 -257q0 -171 61.5 -256.5t186.5 -85.5q55 0 108 18t99 52v-116q-49 -23 -99.5 -34t-107.5 -11q-181 0 -281 113.5t-100 319.5zM700 112q0 52 16 88q63 141 234 141q75 0 124 -19q-124 130 -124 236q0 234 236 234t236 -234 q0 -106 -124 -236q49 19 124 19q171 0 234 -141q16 -36 16 -88q0 -146 -146 -216q-25 -12 -78 -13q-169 -5 -242 192q0 -251 57 -327h-154q57 76 57 327q-72 -195 -242 -192q-53 1 -78 13q-146 67 -146 216z" />
<glyph unicode="&#x1f0dd;" d="M200 -252v1913q0 240 240 240h1215q240 0 240 -240v-1913q0 -240 -240 -240h-1215q-240 0 -240 240zM320 -252q0 -120 120 -120h1215q120 0 120 120v1913q0 120 -120 120h-1215q-120 0 -120 -120v-1913zM424 1244q0 219 78 326.5t236 107.5q159 0 237 -107.5t78 -326.5 q0 -165 -43 -265.5t-131 -140.5l126 -106l-95 -56l-147 136q-4 0 -12.5 -0.5t-13.5 -0.5q-158 0 -235.5 107.5t-77.5 325.5zM557 1244q0 -184 42.5 -263t138.5 -79q97 0 139.5 79t42.5 263t-42.5 263t-139.5 79q-96 0 -138.5 -79t-42.5 -263zM700 112q0 52 16 88 q63 141 234 141q75 0 124 -19q-124 130 -124 236q0 234 236 234t236 -234q0 -106 -124 -236q49 19 124 19q171 0 234 -141q16 -36 16 -88q0 -146 -146 -216q-25 -12 -78 -13q-169 -5 -242 192q0 -251 57 -327h-154q57 76 57 327q-72 -195 -242 -192q-53 1 -78 13 q-146 67 -146 216z" />
<glyph unicode="&#x1f0de;" d="M200 -252v1913q0 240 240 240h1215q240 0 240 -240v-1913q0 -240 -240 -240h-1215q-240 0 -240 240zM320 -252q0 -120 120 -120h1215q120 0 120 120v1913q0 120 -120 120h-1215q-120 0 -120 -120v-1913zM440 825v836h127v-353l362 353h164l-407 -390l440 -446h-167 l-392 403v-403h-127zM700 112q0 52 16 88q63 141 234 141q75 0 124 -19q-124 130 -124 236q0 234 236 234t236 -234q0 -106 -124 -236q49 19 124 19q171 0 234 -141q16 -36 16 -88q0 -146 -146 -216q-25 -12 -78 -13q-169 -5 -242 192q0 -251 57 -327h-154q57 76 57 327 q-72 -195 -242 -192q-53 1 -78 13q-146 67 -146 216z" />
<glyph unicode="&#x1f0df;" d="M200 -252v1913q0 240 240 240h1215q240 0 240 -240v-1913q0 -240 -240 -240h-1215q-240 0 -240 240zM320 -252q0 -120 120 -120h1215q120 0 120 120v1913q0 120 -120 120h-1215q-120 0 -120 -120v-1913zM440 888l435 40l173 401l173 -401l434 -40l-328 -286l96 -428 l-375 223l-377 -223l98 424zM624 828l262 -190l-101 -307l263 190l261 -190l-99 307l261 190h-325l-98 306l-100 -306h-324z" />
</font>
</defs>
</svg>
